<svg width="36" height="38" viewBox="0 0 36 38" fill="none" xmlns="http://www.w3.org/2000/svg">
<path d="M12.6824 28.5661L12.8629 28.3512C14.306 26.6287 15.758 24.8698 17.3046 23.2351C18.8443 21.6078 25.1849 15.1289 26.8243 13.5946L27.0283 13.403L27.2209 13.6066C28.097 14.5326 29.2813 15.0566 30.5129 15.063C31.7445 15.0694 32.9225 14.5578 33.7882 13.6428C34.6537 12.7278 35.1371 11.4833 35.1312 10.1817C35.1251 8.87985 34.63 7.62745 33.7539 6.70148C32.9061 5.80542 31.8196 5.32595 30.7237 5.25079L30.47 5.23234L30.4532 4.96491C30.3821 3.80645 29.928 2.65756 29.08 1.76132C28.204 0.835417 27.019 0.312039 25.7874 0.305666C24.5561 0.299444 23.3784 0.810361 22.5128 1.72515C21.6471 2.64012 21.1632 3.8853 21.1691 5.18694C21.1752 6.48877 21.671 7.74051 22.547 8.66648L22.7396 8.87007L22.5591 9.08643C21.1075 10.8192 14.9771 17.5203 13.4375 19.1476C11.8908 20.7823 10.2274 22.3178 8.59776 23.8431L8.39373 24.0332L8.20111 23.8296C7.32505 22.9037 6.14009 22.3803 4.90843 22.3739C3.67714 22.3677 2.49945 22.8786 1.63387 23.7934C0.768215 24.7084 0.284262 25.9536 0.290223 27.2552C0.296253 28.557 0.791424 29.8095 1.66743 30.7354C2.51536 31.6317 3.60233 32.1117 4.69836 32.1868L4.95206 32.2039L4.96884 32.4727C5.04 33.631 5.49364 34.7795 6.34134 35.6756C7.21739 36.6016 8.40235 37.1249 9.63402 37.1313C10.8656 37.1376 12.0435 36.6261 12.9093 35.7111C13.7748 34.7961 14.2582 33.5515 14.2522 32.25C14.2462 30.9481 13.7511 29.6957 12.875 28.7697L12.6824 28.5661Z" fill="#FBFBFB" stroke="#1E1E1E" stroke-width="0.595806"/>
</svg>
