<svg width="26" height="11" viewBox="0 0 26 11" fill="none" xmlns="http://www.w3.org/2000/svg">
<path d="M24.4835 5.49995C25.0877 4.89575 25.4271 4.07627 25.4271 3.2218C25.4271 2.36732 25.0877 1.54785 24.4835 0.943643C23.8793 0.339439 23.0598 0 22.2053 0C21.3508 0 20.5314 0.339439 19.9272 0.943643C19.3275 1.54967 18.9912 2.36828 18.9943 3.2218L6.43279 3.22189C6.43453 2.79951 6.35305 2.38091 6.19299 1.99002C6.03293 1.59913 5.79744 1.2436 5.49995 0.943741C4.89575 0.339537 4.07627 9.84241e-05 3.2218 9.84241e-05C2.36732 9.84241e-05 1.54785 0.339537 0.943642 0.943741C0.339438 1.54795 1.89119e-07 2.36742 1.89119e-07 3.2219C1.89119e-07 4.07637 0.339439 4.89585 0.943643 5.50005C0.339439 6.10425 0 6.92373 0 7.7782C0 8.63268 0.339439 9.45215 0.943643 10.0564C1.54785 10.6606 2.36732 11 3.2218 11C4.07627 11 4.89575 10.6606 5.49995 10.0564C5.79744 9.7565 6.03293 9.40097 6.19299 9.01008C6.35305 8.61919 6.43453 8.20059 6.43279 7.7782L18.9943 7.77811C18.9912 8.63162 19.3275 9.45023 19.9272 10.0563C20.5314 10.6605 21.3508 10.9999 22.2053 10.9999C23.0598 10.9999 23.8793 10.6605 24.4835 10.0563C25.0877 9.45206 25.4271 8.63258 25.4271 7.77811C25.4271 6.92363 25.0877 6.10415 24.4835 5.49995Z" fill="#DD3737"/>
</svg>
