<svg width="1062" height="367" viewBox="0 0 1062 367" fill="none" xmlns="http://www.w3.org/2000/svg">
<path d="M582.666 167.928C582.358 164.09 580.919 161.096 578.347 158.946C575.814 156.796 571.956 155.722 566.774 155.722C563.472 155.722 560.766 156.125 558.655 156.931C556.582 157.698 555.047 158.754 554.049 160.098C553.051 161.441 552.532 162.977 552.494 164.704C552.417 166.124 552.667 167.41 553.242 168.562C553.857 169.675 554.816 170.692 556.121 171.613C557.427 172.496 559.096 173.302 561.131 174.032C563.165 174.761 565.584 175.414 568.386 175.99L578.059 178.062C584.585 179.444 590.17 181.268 594.815 183.532C599.46 185.797 603.26 188.465 606.216 191.536C609.171 194.568 611.34 197.985 612.722 201.785C614.142 205.585 614.872 209.731 614.91 214.222C614.872 221.976 612.933 228.54 609.095 233.914C605.256 239.289 599.767 243.377 592.627 246.179C585.525 248.981 576.984 250.382 567.004 250.382C556.755 250.382 547.811 248.866 540.172 245.833C532.571 242.801 526.66 238.137 522.437 231.842C518.253 225.508 516.142 217.408 516.104 207.543H546.506C546.698 211.151 547.6 214.184 549.212 216.641C550.824 219.097 553.089 220.959 556.006 222.226C558.962 223.493 562.474 224.126 566.543 224.126C569.96 224.126 572.819 223.704 575.123 222.859C577.426 222.015 579.172 220.844 580.362 219.347C581.552 217.85 582.167 216.142 582.205 214.222C582.167 212.418 581.572 210.844 580.42 209.501C579.307 208.119 577.464 206.89 574.892 205.816C572.32 204.702 568.847 203.666 564.47 202.706L552.724 200.173C542.283 197.908 534.049 194.127 528.023 188.83C522.034 183.494 519.059 176.22 519.098 167.007C519.059 159.522 521.056 152.977 525.086 147.373C529.155 141.73 534.779 137.335 541.957 134.187C549.174 131.039 557.446 129.465 566.774 129.465C576.293 129.465 584.527 131.058 591.475 134.244C598.423 137.43 603.778 141.922 607.54 147.718C611.34 153.476 613.259 160.213 613.298 167.928H582.666ZM653.128 249H618.581L657.504 131.078H701.265L740.189 249H705.641L679.845 163.552H678.924L653.128 249ZM646.679 202.476H711.629V226.429H646.679V202.476ZM767.711 249L732.933 131.078H768.633L784.755 203.628H785.676L804.793 131.078H832.891L852.008 203.858H852.929L869.051 131.078H904.751L869.973 249H839.34L819.303 183.129H818.381L798.344 249H767.711Z" fill="#FBFBFB"/>
<path d="M990.408 73.887L990.035 74.1777C981.477 80.8401 972.875 87.6336 963.956 93.7499C955.051 99.8566 918.616 123.949 909.357 129.502L908.955 129.743L908.711 129.342C905.394 123.879 900.139 120.062 894.104 118.73C888.07 117.399 881.75 118.661 876.534 122.238C871.319 125.815 867.633 131.414 866.288 137.805C864.943 144.197 866.051 150.858 869.368 156.321C872.578 161.608 877.398 165.109 882.691 166.633L883.102 166.752L883.034 167.198C882.16 172.951 883.176 179.061 886.387 184.347C889.704 189.81 894.958 193.626 900.993 194.958C907.027 196.289 913.347 195.027 918.563 191.45C923.778 187.873 927.465 182.274 928.809 175.883C930.154 169.491 929.047 162.831 925.73 157.368L925.485 156.966L925.858 156.676C934.435 149.999 970.104 124.646 979.009 118.539C987.928 112.423 997.297 106.893 1006.54 101.351L1006.94 101.11L1007.18 101.512C1010.5 106.975 1015.75 110.791 1021.79 112.123C1027.82 113.454 1034.14 112.192 1039.36 108.615C1044.57 105.038 1048.26 99.4386 1049.61 93.0473C1050.95 86.6557 1049.84 79.9953 1046.53 74.5326C1043.32 69.2456 1038.49 65.7453 1033.2 64.2207L1032.79 64.102L1032.86 63.6564C1033.73 57.9033 1032.72 51.7929 1029.51 46.506C1026.19 41.0432 1020.93 37.2264 1014.9 35.8949C1008.87 34.5636 1002.55 35.8258 997.33 39.4024C992.114 42.9792 988.428 48.5791 987.083 54.9705C985.738 61.3622 986.847 68.0227 990.164 73.4855L990.408 73.887Z" fill="#FBFBFB" stroke="#1E1E1E"/>
<path opacity="0.73" d="M937.77 135.334L932.049 126.869L935.224 124.723C935.874 124.284 936.502 124.036 937.106 123.981C937.714 123.924 938.274 124.031 938.787 124.302C939.3 124.569 939.739 124.972 940.102 125.509C940.469 126.052 940.68 126.611 940.737 127.188C940.793 127.764 940.68 128.324 940.397 128.868C940.113 129.41 939.644 129.901 938.991 130.342L936.887 131.764L936.035 130.504L937.932 129.221C938.313 128.964 938.579 128.688 938.732 128.392C938.885 128.095 938.942 127.793 938.901 127.483C938.863 127.171 938.743 126.865 938.54 126.565C938.337 126.265 938.099 126.04 937.825 125.891C937.555 125.741 937.255 125.685 936.924 125.724C936.594 125.759 936.237 125.905 935.854 126.164L934.449 127.114L939.304 134.298L937.77 135.334ZM945.261 130.272L939.54 121.806L945.046 118.085L945.915 119.371L941.942 122.055L943.496 124.354L947.183 121.862L948.051 123.147L944.364 125.639L945.926 127.95L949.931 125.243L950.8 126.528L945.261 130.272ZM957.035 116.149C957.652 117.061 958.009 117.957 958.107 118.839C958.205 119.715 958.077 120.524 957.723 121.265C957.372 122.005 956.826 122.625 956.084 123.126C955.343 123.627 954.563 123.903 953.743 123.955C952.924 124.003 952.125 123.819 951.345 123.402C950.567 122.981 949.871 122.315 949.256 121.406C948.64 120.494 948.282 119.599 948.183 118.723C948.085 117.842 948.212 117.031 948.564 116.292C948.918 115.551 949.466 114.93 950.207 114.429C950.948 113.928 951.727 113.652 952.544 113.602C953.364 113.55 954.163 113.734 954.941 114.155C955.721 114.572 956.419 115.236 957.035 116.149ZM955.493 117.191C955.059 116.549 954.593 116.075 954.094 115.77C953.596 115.46 953.094 115.312 952.588 115.324C952.081 115.334 951.597 115.494 951.137 115.805C950.677 116.116 950.348 116.505 950.15 116.972C949.949 117.437 949.899 117.959 949.998 118.538C950.097 119.113 950.364 119.722 950.798 120.364C951.232 121.006 951.698 121.482 952.196 121.791C952.695 122.096 953.198 122.244 953.706 122.234C954.211 122.222 954.694 122.06 955.154 121.749C955.614 121.438 955.944 121.051 956.144 120.586C956.343 120.119 956.392 119.598 956.292 119.023C956.194 118.443 955.927 117.833 955.493 117.191ZM961.346 119.401L955.624 110.936L958.799 108.791C959.449 108.351 960.077 108.104 960.682 108.048C961.289 107.991 961.849 108.098 962.362 108.37C962.876 108.637 963.314 109.039 963.677 109.576C964.044 110.119 964.256 110.679 964.312 111.255C964.368 111.831 964.255 112.391 963.972 112.935C963.688 113.477 963.219 113.968 962.566 114.41L960.462 115.832L959.61 114.571L961.508 113.289C961.888 113.032 962.155 112.755 962.308 112.459C962.461 112.163 962.517 111.86 962.476 111.55C962.438 111.239 962.318 110.933 962.115 110.632C961.912 110.332 961.674 110.107 961.401 109.959C961.13 109.808 960.83 109.752 960.499 109.791C960.169 109.826 959.812 109.972 959.429 110.231L958.024 111.181L962.879 118.365L961.346 119.401ZM968.836 114.339L963.115 105.874L964.649 104.837L969.501 112.017L973.23 109.497L974.098 110.783L968.836 114.339ZM975.429 109.883L969.708 101.418L975.214 97.697L976.083 98.9825L972.111 101.667L973.664 103.965L977.351 101.473L978.22 102.759L974.532 105.251L976.094 107.561L980.099 104.855L980.968 106.14L975.429 109.883Z" fill="#383636"/>
<path d="M1075.77 115.971L1075.36 115.728C1066.07 110.13 1056.65 104.537 1047.74 98.406C1038.84 92.2843 1003.28 66.9171 994.779 60.2673L994.41 59.9778L994.698 59.6062C998.607 54.55 1000.28 48.2755 999.363 42.1651C998.441 36.055 994.995 30.6085 989.786 27.0229C984.576 23.4374 978.027 22.0055 971.578 23.043C965.13 24.0807 959.309 27.5041 955.4 32.5602C951.617 37.4535 950.078 43.2088 950.554 48.6962L950.591 49.1218L950.15 49.2185C944.466 50.467 939.128 53.607 935.344 58.5003C931.435 63.5564 929.758 69.8303 930.68 75.9406C931.602 82.0507 935.047 87.4972 940.257 91.0828C945.467 94.6683 952.016 96.1004 958.464 95.0627C964.913 94.0249 970.733 90.6023 974.642 85.5462L974.93 85.1739L975.334 85.4178C984.643 91.0284 1021.1 115.228 1030 121.35C1038.91 127.481 1047.43 134.243 1055.92 140.879L1056.29 141.168L1056 141.54C1052.09 146.596 1050.41 152.869 1051.33 158.98C1052.26 165.09 1055.7 170.537 1060.91 174.122C1066.12 177.708 1072.67 179.14 1079.12 178.102C1085.57 177.065 1091.39 173.642 1095.3 168.586C1099.08 163.693 1100.62 157.937 1100.14 152.449L1100.11 152.024L1100.55 151.927C1106.23 150.679 1111.57 147.539 1115.35 142.646C1119.26 137.59 1120.94 131.315 1120.02 125.205C1119.1 119.095 1115.65 113.648 1110.44 110.063C1105.23 106.477 1098.68 105.044 1092.23 106.082C1085.78 107.12 1079.97 110.544 1076.06 115.6L1075.77 115.971Z" fill="#D7D7D7" stroke="#1E1E1E"/>
<path opacity="0.73" d="M1009.64 87.7631C1009.73 87.4946 1009.77 87.2312 1009.78 86.9729C1009.78 86.7138 1009.75 86.4634 1009.67 86.2218C1009.59 85.9822 1009.47 85.7567 1009.3 85.5454C1009.13 85.3315 1008.92 85.1369 1008.67 84.9617C1008.22 84.6475 1007.74 84.4808 1007.23 84.4615C1006.72 84.4422 1006.22 84.5816 1005.71 84.8797C1005.2 85.177 1004.73 85.6393 1004.29 86.2665C1003.85 86.8991 1003.58 87.5045 1003.47 88.0825C1003.36 88.6605 1003.41 89.1879 1003.6 89.6645C1003.8 90.1383 1004.13 90.539 1004.6 90.8665C1005.02 91.1636 1005.45 91.3388 1005.87 91.3923C1006.3 91.4477 1006.71 91.3844 1007.08 91.2025C1007.46 91.0179 1007.8 90.7224 1008.08 90.3161L1008.39 90.6092L1006.11 89.0211L1006.94 87.8349L1010.34 90.2084L1009.64 91.2146C1009.14 91.9318 1008.55 92.4456 1007.88 92.7559C1007.21 93.0662 1006.51 93.1765 1005.77 93.0869C1005.04 92.9946 1004.33 92.7066 1003.64 92.2229C1002.87 91.6841 1002.31 91.0377 1001.97 90.2839C1001.63 89.5293 1001.52 88.7173 1001.64 87.848C1001.77 86.9778 1002.14 86.101 1002.76 85.2175C1003.23 84.5412 1003.75 84.0038 1004.31 83.6054C1004.87 83.2088 1005.46 82.946 1006.06 82.817C1006.67 82.6852 1007.28 82.6853 1007.88 82.8173C1008.48 82.9466 1009.06 83.2026 1009.6 83.5853C1010.07 83.909 1010.45 84.279 1010.76 84.6953C1011.07 85.1088 1011.29 85.5482 1011.43 86.0134C1011.57 86.4805 1011.62 86.955 1011.58 87.4368C1011.55 87.9185 1011.42 88.3872 1011.19 88.8428L1009.64 87.7631ZM1019.16 96.6563C1018.53 97.5589 1017.82 98.2139 1017.03 98.6214C1016.25 99.028 1015.45 99.1989 1014.63 99.1342C1013.81 99.0714 1013.04 98.7839 1012.3 98.2717C1011.57 97.7595 1011.03 97.1301 1010.69 96.3837C1010.35 95.6364 1010.24 94.8243 1010.34 93.9474C1010.46 93.0696 1010.83 92.1808 1011.46 91.2809C1012.09 90.3783 1012.79 89.7237 1013.58 89.3171C1014.37 88.9096 1015.17 88.7373 1015.98 88.8001C1016.8 88.8648 1017.58 89.1533 1018.31 89.6655C1019.05 90.1777 1019.58 90.8061 1019.92 91.5507C1020.27 92.2971 1020.38 93.1092 1020.27 93.987C1020.16 94.8639 1019.79 95.7537 1019.16 96.6563ZM1017.63 95.5909C1018.07 94.9556 1018.35 94.3502 1018.45 93.7749C1018.56 93.1988 1018.52 92.677 1018.33 92.2097C1018.14 91.7396 1017.82 91.3456 1017.36 91.0276C1016.91 90.7096 1016.42 90.5419 1015.92 90.5245C1015.41 90.5044 1014.91 90.6444 1014.4 90.9444C1013.9 91.2436 1013.43 91.7109 1012.98 92.3463C1012.54 92.9816 1012.26 93.5874 1012.15 94.1635C1012.05 94.7388 1012.09 95.2615 1012.28 95.7316C1012.47 96.1989 1012.8 96.5916 1013.25 96.9096C1013.71 97.2276 1014.19 97.3966 1014.69 97.4168C1015.2 97.4342 1015.71 97.2933 1016.21 96.994C1016.71 96.694 1017.19 96.2263 1017.63 95.5909ZM1018.29 102.284L1016.67 101.153L1025.47 94.8348L1027.34 96.143L1024.45 106.582L1022.83 105.451L1025.24 97.2297L1025.18 97.184L1018.29 102.284ZM1020.64 99.0362L1025.06 102.121L1024.21 103.34L1019.79 100.255L1020.64 99.0362ZM1025.55 107.353L1031.4 98.9756L1032.92 100.035L1027.96 107.14L1031.65 109.717L1030.76 110.989L1025.55 107.353ZM1040.87 109.013C1041.08 108.629 1041.11 108.239 1040.97 107.842C1040.83 107.447 1040.53 107.092 1040.08 106.778C1039.77 106.557 1039.46 106.415 1039.17 106.352C1038.87 106.29 1038.61 106.298 1038.38 106.378C1038.14 106.458 1037.95 106.602 1037.8 106.81C1037.68 106.985 1037.61 107.164 1037.6 107.347C1037.6 107.532 1037.63 107.718 1037.71 107.906C1037.78 108.09 1037.89 108.271 1038.01 108.449C1038.14 108.627 1038.28 108.797 1038.42 108.958L1039.07 109.702C1039.33 109.997 1039.57 110.309 1039.77 110.638C1039.98 110.969 1040.13 111.311 1040.23 111.664C1040.33 112.018 1040.36 112.378 1040.3 112.743C1040.25 113.108 1040.1 113.472 1039.85 113.835C1039.5 114.326 1039.08 114.671 1038.56 114.869C1038.05 115.065 1037.49 115.102 1036.87 114.98C1036.25 114.858 1035.61 114.563 1034.94 114.095C1034.28 113.639 1033.79 113.143 1033.45 112.607C1033.11 112.072 1032.95 111.516 1032.95 110.94C1032.95 110.367 1033.13 109.794 1033.5 109.222L1034.99 110.265C1034.81 110.572 1034.73 110.877 1034.76 111.181C1034.78 111.486 1034.88 111.774 1035.07 112.046C1035.26 112.321 1035.51 112.568 1035.83 112.789C1036.16 113.02 1036.48 113.172 1036.8 113.248C1037.12 113.322 1037.41 113.32 1037.68 113.242C1037.95 113.161 1038.17 113.001 1038.34 112.763C1038.49 112.543 1038.55 112.318 1038.52 112.089C1038.5 111.857 1038.4 111.614 1038.24 111.361C1038.09 111.106 1037.89 110.836 1037.64 110.55L1036.86 109.639C1036.29 108.98 1035.94 108.331 1035.79 107.691C1035.64 107.05 1035.78 106.43 1036.2 105.83C1036.54 105.337 1036.98 104.998 1037.5 104.814C1038.03 104.631 1038.6 104.6 1039.21 104.719C1039.82 104.835 1040.41 105.098 1041 105.508C1041.59 105.923 1042.04 106.39 1042.34 106.909C1042.65 107.428 1042.81 107.96 1042.81 108.504C1042.81 109.046 1042.65 109.555 1042.33 110.033L1040.87 109.013Z" fill="#383636"/>
<line x1="448.51" y1="200" x2="448.51" y2="272" stroke="white"/>
<line x1="484.002" y1="236.505" x2="412.002" y2="236.505" stroke="white"/>
<path d="M658.711 120V109.782H662.542C663.327 109.782 663.986 109.929 664.518 110.221C665.054 110.514 665.458 110.917 665.73 111.429C666.006 111.938 666.144 112.516 666.144 113.165C666.144 113.82 666.006 114.402 665.73 114.911C665.454 115.42 665.047 115.821 664.508 116.113C663.969 116.403 663.306 116.547 662.517 116.547H659.978V115.026H662.268C662.727 115.026 663.103 114.946 663.396 114.786C663.688 114.627 663.904 114.407 664.044 114.128C664.187 113.848 664.259 113.527 664.259 113.165C664.259 112.802 664.187 112.483 664.044 112.207C663.904 111.931 663.687 111.716 663.391 111.564C663.098 111.407 662.72 111.329 662.258 111.329H660.562V120H658.711ZM667.925 120H665.95L669.547 109.782H671.832L675.434 120H673.458L670.729 111.878H670.649L667.925 120ZM667.99 115.994H673.378V117.48H667.99V115.994ZM682.168 112.591C682.121 112.156 681.925 111.816 681.579 111.573C681.236 111.331 680.791 111.209 680.242 111.209C679.856 111.209 679.525 111.267 679.249 111.384C678.973 111.5 678.762 111.658 678.615 111.858C678.469 112.057 678.394 112.285 678.391 112.541C678.391 112.754 678.439 112.939 678.536 113.095C678.635 113.251 678.77 113.384 678.94 113.494C679.109 113.601 679.297 113.69 679.503 113.764C679.71 113.837 679.918 113.898 680.127 113.948L681.085 114.188C681.471 114.277 681.842 114.399 682.197 114.552C682.557 114.705 682.878 114.898 683.16 115.131C683.446 115.363 683.673 115.644 683.839 115.974C684.005 116.303 684.088 116.689 684.088 117.131C684.088 117.73 683.935 118.257 683.629 118.713C683.323 119.165 682.881 119.519 682.302 119.775C681.727 120.028 681.03 120.154 680.212 120.154C679.417 120.154 678.727 120.031 678.142 119.785C677.559 119.539 677.104 119.18 676.775 118.708C676.449 118.235 676.272 117.66 676.246 116.981H678.067C678.093 117.337 678.203 117.633 678.396 117.869C678.589 118.106 678.84 118.282 679.149 118.398C679.462 118.515 679.811 118.573 680.197 118.573C680.599 118.573 680.952 118.513 681.255 118.393C681.561 118.27 681.8 118.101 681.973 117.884C682.146 117.665 682.234 117.409 682.237 117.116C682.234 116.85 682.156 116.631 682.003 116.458C681.85 116.281 681.635 116.135 681.359 116.019C681.087 115.899 680.767 115.792 680.401 115.699L679.239 115.4C678.398 115.184 677.732 114.856 677.243 114.417C676.758 113.975 676.515 113.388 676.515 112.656C676.515 112.054 676.678 111.527 677.004 111.075C677.333 110.622 677.781 110.271 678.346 110.022C678.911 109.769 679.552 109.643 680.267 109.643C680.992 109.643 681.627 109.769 682.173 110.022C682.721 110.271 683.152 110.619 683.465 111.065C683.777 111.507 683.939 112.016 683.949 112.591H682.168ZM691.291 112.591C691.244 112.156 691.048 111.816 690.702 111.573C690.36 111.331 689.914 111.209 689.365 111.209C688.98 111.209 688.649 111.267 688.373 111.384C688.096 111.5 687.885 111.658 687.739 111.858C687.593 112.057 687.518 112.285 687.514 112.541C687.514 112.754 687.563 112.939 687.659 113.095C687.759 113.251 687.894 113.384 688.063 113.494C688.233 113.601 688.421 113.69 688.627 113.764C688.833 113.837 689.041 113.898 689.251 113.948L690.208 114.188C690.594 114.277 690.965 114.399 691.321 114.552C691.68 114.705 692.001 114.898 692.284 115.131C692.57 115.363 692.796 115.644 692.962 115.974C693.129 116.303 693.212 116.689 693.212 117.131C693.212 117.73 693.059 118.257 692.753 118.713C692.447 119.165 692.004 119.519 691.426 119.775C690.85 120.028 690.154 120.154 689.335 120.154C688.54 120.154 687.85 120.031 687.265 119.785C686.683 119.539 686.227 119.18 685.898 118.708C685.572 118.235 685.396 117.66 685.369 116.981H687.19C687.217 117.337 687.327 117.633 687.519 117.869C687.712 118.106 687.963 118.282 688.273 118.398C688.585 118.515 688.935 118.573 689.32 118.573C689.723 118.573 690.075 118.513 690.378 118.393C690.684 118.27 690.924 118.101 691.096 117.884C691.269 117.665 691.358 117.409 691.361 117.116C691.358 116.85 691.279 116.631 691.126 116.458C690.973 116.281 690.759 116.135 690.483 116.019C690.21 115.899 689.891 115.792 689.525 115.699L688.363 115.4C687.521 115.184 686.856 114.856 686.367 114.417C685.881 113.975 685.639 113.388 685.639 112.656C685.639 112.054 685.802 111.527 686.128 111.075C686.457 110.622 686.904 110.271 687.47 110.022C688.035 109.769 688.675 109.643 689.39 109.643C690.115 109.643 690.751 109.769 691.296 110.022C691.845 110.271 692.276 110.619 692.588 111.065C692.901 111.507 693.062 112.016 693.072 112.591H691.291ZM696.713 109.782V120H694.862V109.782H696.713ZM707.847 114.891C707.847 115.992 707.641 116.935 707.228 117.72C706.819 118.501 706.26 119.1 705.552 119.516C704.847 119.932 704.047 120.139 703.152 120.139C702.257 120.139 701.456 119.932 700.748 119.516C700.042 119.097 699.484 118.496 699.071 117.715C698.662 116.93 698.458 115.989 698.458 114.891C698.458 113.79 698.662 112.849 699.071 112.067C699.484 111.282 700.042 110.682 700.748 110.266C701.456 109.851 702.257 109.643 703.152 109.643C704.047 109.643 704.847 109.851 705.552 110.266C706.26 110.682 706.819 111.282 707.228 112.067C707.641 112.849 707.847 113.79 707.847 114.891ZM705.986 114.891C705.986 114.116 705.864 113.463 705.622 112.93C705.382 112.395 705.05 111.991 704.624 111.718C704.198 111.442 703.708 111.304 703.152 111.304C702.597 111.304 702.106 111.442 701.68 111.718C701.255 111.991 700.92 112.395 700.678 112.93C700.438 113.463 700.318 114.116 700.318 114.891C700.318 115.666 700.438 116.321 700.678 116.857C700.92 117.389 701.255 117.793 701.68 118.069C702.106 118.342 702.597 118.478 703.152 118.478C703.708 118.478 704.198 118.342 704.624 118.069C705.05 117.793 705.382 117.389 705.622 116.857C705.864 116.321 705.986 115.666 705.986 114.891ZM717.993 109.782V120H716.347L711.532 113.04H711.447V120H709.597V109.782H711.253L716.062 116.747H716.152V109.782H717.993Z" fill="#DD3737"/>
<path d="M654.607 283.587L654.138 283.525C643.389 282.079 632.516 280.694 621.904 278.607C611.309 276.525 568.598 267.378 558.15 264.656L557.697 264.537L557.813 264.082C559.39 257.888 558.436 251.464 555.162 246.223C551.888 240.983 546.562 237.354 540.356 236.134C534.151 234.914 527.572 236.203 522.067 239.717C516.562 243.232 512.581 248.687 511.003 254.88C509.476 260.874 510.351 266.767 512.968 271.613L513.172 271.989L512.805 272.253C508.086 275.657 504.435 280.66 502.908 286.654C501.33 292.847 502.284 299.271 505.559 304.512C508.833 309.752 514.159 313.381 520.364 314.601C526.57 315.821 533.149 314.532 538.654 311.017C544.159 307.503 548.139 302.049 549.717 295.856L549.833 295.4L550.301 295.463C561.073 296.912 604.149 304.629 614.744 306.712C625.356 308.798 635.864 311.615 646.289 314.332L646.743 314.45L646.627 314.906C645.049 321.099 646.003 327.523 649.277 332.763C652.551 338.004 657.878 341.633 664.084 342.853C670.289 344.072 676.868 342.784 682.373 339.269C687.878 335.754 691.858 330.301 693.436 324.107C694.963 318.114 694.087 312.221 691.47 307.374L691.268 306.999L691.633 306.734C696.353 303.33 700.005 298.327 701.532 292.333C703.11 286.14 702.156 279.716 698.881 274.475C695.607 269.234 690.281 265.606 684.075 264.386C677.87 263.166 671.29 264.454 665.785 267.969C660.28 271.484 656.3 276.939 654.723 283.132L654.607 283.587Z" fill="#D7D7D7" stroke="#1E1E1E"/>
<path opacity="0.73" d="M593.551 286.374L591.722 286.002C591.731 285.691 591.689 285.406 591.596 285.146C591.504 284.883 591.37 284.649 591.194 284.443C591.019 284.238 590.806 284.067 590.555 283.931C590.309 283.793 590.032 283.693 589.726 283.63C589.182 283.519 588.671 283.558 588.195 283.746C587.72 283.931 587.31 284.262 586.965 284.738C586.621 285.211 586.372 285.824 586.219 286.577C586.063 287.343 586.05 288.012 586.181 288.585C586.316 289.156 586.565 289.617 586.928 289.969C587.295 290.319 587.748 290.549 588.289 290.659C588.589 290.72 588.878 290.738 589.154 290.713C589.435 290.685 589.695 290.614 589.936 290.5C590.179 290.387 590.396 290.231 590.586 290.032C590.779 289.834 590.933 289.594 591.048 289.311L592.875 289.694C592.709 290.155 592.47 290.572 592.157 290.942C591.847 291.314 591.477 291.622 591.047 291.867C590.618 292.109 590.141 292.27 589.615 292.349C589.09 292.426 588.53 292.403 587.934 292.282C587.054 292.103 586.31 291.739 585.702 291.191C585.094 290.643 584.669 289.944 584.428 289.094C584.187 288.244 584.176 287.281 584.395 286.205C584.615 285.127 585.003 284.245 585.56 283.561C586.117 282.873 586.783 282.396 587.557 282.13C588.331 281.863 589.155 281.818 590.028 281.996C590.585 282.11 591.088 282.293 591.535 282.547C591.982 282.801 592.362 283.118 592.675 283.498C592.989 283.874 593.222 284.305 593.374 284.791C593.53 285.274 593.589 285.802 593.551 286.374ZM603.826 290.162C603.606 291.241 603.216 292.124 602.656 292.81C602.099 293.495 601.432 293.97 600.655 294.236C599.881 294.503 599.055 294.547 598.179 294.368C597.302 294.19 596.558 293.826 595.947 293.277C595.34 292.726 594.912 292.026 594.664 291.178C594.419 290.327 594.407 289.364 594.626 288.289C594.845 287.21 595.234 286.328 595.791 285.644C596.351 284.957 597.019 284.48 597.792 284.214C598.57 283.948 599.397 283.904 600.273 284.082C601.15 284.261 601.892 284.624 602.5 285.172C603.111 285.721 603.539 286.421 603.783 287.272C604.032 288.12 604.046 289.083 603.826 290.162ZM602.003 289.791C602.157 289.031 602.169 288.367 602.037 287.797C601.909 287.224 601.664 286.762 601.301 286.41C600.939 286.054 600.486 285.821 599.942 285.71C599.397 285.6 598.889 285.637 598.417 285.822C597.945 286.005 597.537 286.334 597.192 286.81C596.852 287.284 596.604 287.901 596.449 288.66C596.295 289.419 596.281 290.085 596.409 290.658C596.541 291.228 596.788 291.69 597.15 292.046C597.512 292.398 597.966 292.629 598.51 292.74C599.055 292.851 599.562 292.815 600.034 292.633C600.506 292.447 600.913 292.118 601.254 291.644C601.598 291.168 601.848 290.55 602.003 289.791ZM604.521 295.517L606.56 285.505L610.315 286.27C611.084 286.426 611.702 286.691 612.169 287.065C612.639 287.439 612.959 287.894 613.128 288.431C613.301 288.965 613.322 289.552 613.192 290.191C613.061 290.833 612.811 291.362 612.441 291.779C612.075 292.193 611.602 292.475 611.021 292.625C610.442 292.772 609.767 292.767 608.998 292.61L606.324 292.066L606.631 290.56L609.06 291.055C609.51 291.146 609.891 291.159 610.203 291.094C610.516 291.025 610.765 290.884 610.951 290.671C611.141 290.455 611.272 290.169 611.344 289.814C611.417 289.459 611.408 289.142 611.319 288.862C611.231 288.579 611.057 288.344 610.796 288.155C610.537 287.963 610.18 287.821 609.727 287.728L608.065 287.39L606.335 295.886L604.521 295.517ZM610.617 292.034L612.172 297.075L610.148 296.663L608.638 291.631L610.617 292.034ZM613.475 297.34L615.514 287.328L622.025 288.654L621.716 290.175L617.018 289.218L616.464 291.936L620.825 292.824L620.515 294.344L616.155 293.457L615.598 296.189L620.335 297.154L620.026 298.674L613.475 297.34Z" fill="#383636"/>
<path d="M779.897 266.782V277H778.046V266.782H779.897ZM790.298 266.782V277H788.651L783.837 270.04H783.752V277H781.901V266.782H783.558L788.367 273.747H788.457V266.782H790.298ZM791.866 268.334V266.782H800.017V268.334H796.859V277H795.024V268.334H791.866ZM801.589 277V266.782H808.234V268.334H803.44V271.108H807.89V272.659H803.44V275.448H808.274V277H801.589ZM810.123 277V266.782H813.954C814.739 266.782 815.397 266.919 815.93 267.192C816.465 267.464 816.869 267.847 817.142 268.339C817.418 268.828 817.556 269.398 817.556 270.05C817.556 270.705 817.416 271.274 817.137 271.756C816.861 272.235 816.453 272.606 815.915 272.869C815.376 273.128 814.714 273.258 813.929 273.258H811.2V271.721H813.68C814.139 271.721 814.514 271.658 814.807 271.532C815.1 271.402 815.316 271.214 815.456 270.968C815.599 270.719 815.67 270.413 815.67 270.05C815.67 269.688 815.599 269.378 815.456 269.122C815.313 268.863 815.095 268.667 814.802 268.534C814.509 268.397 814.132 268.329 813.67 268.329H811.973V277H810.123ZM815.401 272.37L817.93 277H815.865L813.38 272.37H815.401ZM821.709 277V266.782H826.139C826.918 266.782 827.571 266.887 828.1 267.097C828.632 267.306 829.033 267.602 829.302 267.985C829.575 268.367 829.711 268.818 829.711 269.337C829.711 269.713 829.628 270.055 829.462 270.365C829.299 270.674 829.07 270.933 828.774 271.143C828.478 271.349 828.132 271.492 827.736 271.572V271.672C828.175 271.688 828.574 271.8 828.933 272.006C829.292 272.209 829.578 272.49 829.791 272.849C830.004 273.205 830.111 273.624 830.111 274.106C830.111 274.665 829.964 275.162 829.672 275.598C829.382 276.034 828.97 276.376 828.434 276.626C827.899 276.875 827.26 277 826.519 277H821.709ZM824.483 274.785H825.78C826.246 274.785 826.595 274.698 826.828 274.525C827.061 274.349 827.177 274.09 827.177 273.747C827.177 273.508 827.122 273.305 827.012 273.138C826.903 272.972 826.746 272.846 826.544 272.759C826.344 272.673 826.103 272.629 825.82 272.629H824.483V274.785ZM824.483 270.913H825.621C825.863 270.913 826.078 270.875 826.264 270.799C826.45 270.722 826.595 270.612 826.698 270.469C826.805 270.323 826.858 270.145 826.858 269.935C826.858 269.619 826.745 269.378 826.519 269.212C826.292 269.042 826.006 268.958 825.66 268.958H824.483V270.913ZM831.093 277V266.782H833.867V274.765H837.998V277H831.093ZM841.773 277H838.78L842.153 266.782H845.944L849.317 277H846.323L844.088 269.596H844.008L841.773 277ZM841.215 272.969H846.842V275.044H841.215V272.969ZM859.359 270.614H856.546C856.526 270.381 856.472 270.17 856.386 269.98C856.303 269.791 856.186 269.628 856.037 269.491C855.89 269.352 855.712 269.245 855.503 269.172C855.293 269.096 855.056 269.057 854.79 269.057C854.324 269.057 853.93 269.17 853.607 269.397C853.288 269.623 853.045 269.947 852.879 270.369C852.716 270.792 852.634 271.299 852.634 271.891C852.634 272.516 852.717 273.04 852.884 273.463C853.053 273.882 853.298 274.198 853.617 274.411C853.936 274.62 854.321 274.725 854.77 274.725C855.026 274.725 855.255 274.693 855.458 274.63C855.661 274.564 855.837 274.469 855.987 274.346C856.137 274.223 856.258 274.075 856.351 273.902C856.447 273.725 856.512 273.527 856.546 273.308L859.359 273.328C859.326 273.76 859.205 274.201 858.995 274.65C858.786 275.096 858.488 275.508 858.102 275.887C857.72 276.263 857.246 276.566 856.68 276.795C856.115 277.025 855.458 277.139 854.71 277.139C853.772 277.139 852.93 276.938 852.185 276.536C851.444 276.133 850.857 275.541 850.424 274.76C849.995 273.978 849.781 273.022 849.781 271.891C849.781 270.754 850 269.796 850.439 269.017C850.878 268.236 851.47 267.646 852.215 267.246C852.96 266.844 853.792 266.643 854.71 266.643C855.355 266.643 855.949 266.731 856.491 266.907C857.033 267.083 857.508 267.341 857.918 267.68C858.327 268.016 858.656 268.43 858.905 268.923C859.155 269.415 859.306 269.979 859.359 270.614ZM860.618 277V266.782H863.392V270.913H863.531L866.604 266.782H869.837L866.385 271.332L869.917 277H866.604L864.31 273.168L863.392 274.366V277H860.618Z" fill="#D9D9D9"/>
<path d="M8.40519 289V171.077H40.4194V218.753H42.0316L77.5005 171.077H114.812L74.967 223.59L115.733 289H77.5005L51.014 244.779L40.4194 258.598V289H8.40519ZM156.327 171.077V289H124.313V171.077H156.327ZM235.067 207.928C234.76 204.089 233.32 201.095 230.748 198.946C228.215 196.796 224.357 195.721 219.175 195.721C215.873 195.721 213.167 196.124 211.056 196.93C208.983 197.698 207.448 198.754 206.45 200.097C205.452 201.441 204.933 202.976 204.895 204.703C204.818 206.124 205.068 207.41 205.644 208.561C206.258 209.674 207.217 210.692 208.522 211.613C209.828 212.496 211.497 213.302 213.532 214.031C215.566 214.761 217.985 215.413 220.787 215.989L230.46 218.062C236.986 219.444 242.571 221.267 247.216 223.532C251.861 225.797 255.661 228.465 258.617 231.535C261.572 234.568 263.741 237.984 265.123 241.785C266.543 245.585 267.273 249.731 267.311 254.222C267.273 261.976 265.334 268.54 261.496 273.914C257.657 279.288 252.168 283.376 245.028 286.178C237.926 288.981 229.385 290.382 219.405 290.382C209.156 290.382 200.212 288.865 192.573 285.833C184.973 282.8 179.061 278.136 174.839 271.841C170.654 265.507 168.543 257.408 168.505 247.543H198.907C199.099 251.151 200.001 254.183 201.613 256.64C203.225 259.097 205.49 260.959 208.407 262.225C211.363 263.492 214.875 264.125 218.944 264.125C222.361 264.125 225.221 263.703 227.524 262.859C229.827 262.014 231.573 260.843 232.763 259.346C233.953 257.849 234.568 256.141 234.606 254.222C234.568 252.418 233.973 250.844 232.821 249.5C231.708 248.118 229.865 246.89 227.293 245.815C224.722 244.702 221.248 243.666 216.872 242.706L205.125 240.172C194.684 237.908 186.45 234.127 180.424 228.829C174.435 223.494 171.461 216.219 171.499 207.007C171.461 199.521 173.457 192.976 177.487 187.372C181.556 181.729 187.18 177.334 194.358 174.186C201.575 171.039 209.847 169.465 219.175 169.465C228.694 169.465 236.928 171.058 243.876 174.244C250.824 177.43 256.179 181.921 259.941 187.718C263.741 193.475 265.66 200.212 265.699 207.928H235.067ZM343.057 207.928C342.75 204.089 341.31 201.095 338.738 198.946C336.205 196.796 332.347 195.721 327.165 195.721C323.864 195.721 321.157 196.124 319.046 196.93C316.973 197.698 315.438 198.754 314.44 200.097C313.442 201.441 312.924 202.976 312.885 204.703C312.808 206.124 313.058 207.41 313.634 208.561C314.248 209.674 315.208 210.692 316.513 211.613C317.818 212.496 319.488 213.302 321.522 214.031C323.557 214.761 325.975 215.413 328.777 215.989L338.45 218.062C344.976 219.444 350.561 221.267 355.206 223.532C359.851 225.797 363.651 228.465 366.607 231.535C369.563 234.568 371.731 237.984 373.113 241.785C374.534 245.585 375.263 249.731 375.301 254.222C375.263 261.976 373.324 268.54 369.486 273.914C365.647 279.288 360.158 283.376 353.018 286.178C345.917 288.981 337.376 290.382 327.395 290.382C317.146 290.382 308.202 288.865 300.563 285.833C292.963 282.8 287.051 278.136 282.829 271.841C278.645 265.507 276.533 257.408 276.495 247.543H306.897C307.089 251.151 307.991 254.183 309.603 256.64C311.215 259.097 313.48 260.959 316.398 262.225C319.353 263.492 322.866 264.125 326.935 264.125C330.351 264.125 333.211 263.703 335.514 262.859C337.817 262.014 339.564 260.843 340.754 259.346C341.944 257.849 342.558 256.141 342.596 254.222C342.558 252.418 341.963 250.844 340.811 249.5C339.698 248.118 337.856 246.89 335.284 245.815C332.712 244.702 329.238 243.666 324.862 242.706L313.116 240.172C302.674 237.908 294.441 234.127 288.414 228.829C282.426 223.494 279.451 216.219 279.489 207.007C279.451 199.521 281.447 192.976 285.477 187.372C289.546 181.729 295.17 177.334 302.348 174.186C309.565 171.039 317.837 169.465 327.165 169.465C336.685 169.465 344.919 171.058 351.867 174.244C358.814 177.43 364.169 181.921 367.931 187.718C371.731 193.475 373.651 200.212 373.689 207.928H343.057Z" fill="#FBFBFB"/>
<path d="M149.781 275.207L149.339 275.371C139.36 279.068 129.307 282.864 119.121 286.02C108.95 289.172 67.562 301.317 57.1927 303.925L56.7354 304.04L56.5829 303.591C54.7863 298.293 50.7065 293.93 45.2218 291.47C39.735 289.01 33.295 288.659 27.3212 290.51C21.3472 292.362 16.3466 296.257 13.4136 301.327C10.4818 306.394 9.8565 312.216 11.6531 317.513C13.3922 322.641 17.1346 326.643 21.8523 329.099L22.2971 329.331L22.079 329.767C19.7661 334.402 19.1918 339.741 20.9309 344.869C22.7276 350.166 26.8073 354.53 32.292 356.989C37.779 359.45 44.2196 359.8 50.1936 357.949C56.1674 356.097 61.1674 352.202 64.1003 347.132C67.0321 342.065 67.6574 336.243 65.8607 330.946L65.7083 330.496L66.1492 330.333C76.1469 326.629 117.117 313.254 127.289 310.102C137.475 306.945 147.945 304.382 158.295 301.779L158.754 301.663L158.906 302.113C160.703 307.41 164.783 311.774 170.267 314.234C175.754 316.694 182.194 317.044 188.168 315.193C194.142 313.342 199.142 309.447 202.075 304.377C205.007 299.309 205.633 293.488 203.836 288.19C202.097 283.063 198.354 279.061 193.637 276.605L193.192 276.374L193.41 275.937C195.723 271.302 196.297 265.963 194.558 260.835C192.761 255.538 188.682 251.174 183.197 248.715C177.71 246.254 171.269 245.904 165.295 247.755C159.322 249.606 154.322 253.502 151.389 258.571C148.457 263.639 147.832 269.461 149.628 274.758L149.781 275.207Z" fill="#FBFBFB" stroke="#1E1E1E"/>
<path opacity="0.73" d="M96.0785 305.052C95.8711 304.658 95.5572 304.398 95.1369 304.272C94.7198 304.144 94.2499 304.159 93.7272 304.318C93.3598 304.429 93.0664 304.579 92.847 304.767C92.6277 304.956 92.4857 305.164 92.421 305.393C92.3563 305.622 92.3703 305.856 92.463 306.096C92.5427 306.295 92.6577 306.453 92.8081 306.571C92.9616 306.689 93.1397 306.774 93.3423 306.827C93.5437 306.878 93.7563 306.907 93.9801 306.916C94.2038 306.925 94.4248 306.922 94.6431 306.908L95.645 306.855C96.0461 306.828 96.4447 306.834 96.8409 306.874C97.2403 306.913 97.6181 307.001 97.9745 307.136C98.3341 307.271 98.6547 307.468 98.9363 307.728C99.2179 307.987 99.4415 308.323 99.6071 308.737C99.8312 309.296 99.8827 309.832 99.7619 310.346C99.6397 310.857 99.351 311.315 98.8957 311.721C98.4423 312.124 97.826 312.443 97.0467 312.679C96.2897 312.909 95.5863 312.993 94.9367 312.932C94.2902 312.871 93.7218 312.667 93.2315 312.321C92.7443 311.974 92.361 311.488 92.0817 310.862L93.816 310.336C93.9746 310.661 94.1899 310.905 94.462 311.07C94.7341 311.235 95.0392 311.327 95.3774 311.346C95.7187 311.365 96.0731 311.318 96.4406 311.207C96.8239 311.091 97.1372 310.933 97.3807 310.734C97.626 310.53 97.7906 310.303 97.8744 310.051C97.957 309.796 97.9451 309.531 97.8387 309.257C97.7359 309.01 97.5793 308.827 97.3689 308.71C97.1572 308.589 96.8981 308.515 96.5916 308.486C96.2871 308.453 95.9431 308.446 95.5598 308.464L94.3407 308.521C93.4584 308.562 92.7022 308.448 92.0722 308.179C91.4442 307.906 90.9933 307.428 90.7194 306.745C90.4941 306.183 90.452 305.643 90.5931 305.127C90.7374 304.609 91.0321 304.153 91.4773 303.756C91.9211 303.357 92.4836 303.054 93.1647 302.848C93.8552 302.638 94.5075 302.573 95.1216 302.651C95.7377 302.726 96.278 302.926 96.7425 303.252C97.2059 303.574 97.55 304.003 97.7748 304.538L96.0785 305.052ZM98.5812 302.976L98.0005 301.527L105.764 299.173L106.345 300.622L103.337 301.534L106.581 309.626L104.832 310.156L101.589 302.064L98.5812 302.976ZM111.085 308.26L107.261 298.719L110.91 297.613C111.658 297.386 112.336 297.323 112.945 297.424C113.557 297.524 114.085 297.764 114.529 298.145C114.975 298.522 115.32 299.015 115.564 299.624C115.809 300.236 115.889 300.807 115.803 301.338C115.72 301.865 115.47 302.329 115.056 302.73C114.64 303.128 114.058 303.44 113.31 303.667L110.711 304.455L110.136 303.02L112.498 302.304C112.935 302.171 113.269 302.004 113.5 301.801C113.731 301.596 113.866 301.358 113.907 301.087C113.95 300.813 113.904 300.507 113.768 300.168C113.632 299.83 113.448 299.562 113.216 299.364C112.983 299.163 112.702 299.043 112.373 299.003C112.044 298.96 111.659 299.005 111.218 299.139L109.603 299.629L112.848 307.726L111.085 308.26ZM114.38 302.412L118.521 306.005L116.554 306.602L112.455 302.996L114.38 302.412ZM122.098 294.22L123.86 293.685L126.359 299.919C126.633 300.602 126.709 301.253 126.587 301.872C126.469 302.489 126.172 303.034 125.697 303.505C125.22 303.974 124.586 304.328 123.794 304.568C122.999 304.809 122.247 304.875 121.539 304.766C120.83 304.654 120.208 304.388 119.674 303.968C119.14 303.548 118.736 302.997 118.462 302.313L115.963 296.08L117.726 295.546L120.167 301.635C120.326 302.032 120.557 302.359 120.859 302.616C121.164 302.872 121.515 303.039 121.912 303.117C122.308 303.192 122.729 303.162 123.176 303.026C123.623 302.891 123.974 302.687 124.231 302.414C124.489 302.137 124.645 301.816 124.698 301.452C124.751 301.087 124.698 300.706 124.538 300.309L122.098 294.22ZM135.396 293.798L133.619 294.337C133.454 294.066 133.259 293.841 133.034 293.662C132.809 293.48 132.563 293.342 132.298 293.248C132.033 293.154 131.755 293.108 131.464 293.109C131.175 293.106 130.882 293.15 130.584 293.24C130.055 293.4 129.639 293.673 129.335 294.058C129.029 294.44 128.861 294.916 128.831 295.486C128.798 296.053 128.926 296.695 129.214 297.412C129.506 298.142 129.868 298.722 130.3 299.152C130.734 299.578 131.204 299.857 131.712 299.988C132.221 300.116 132.739 300.1 133.265 299.941C133.556 299.852 133.814 299.732 134.037 299.581C134.263 299.426 134.447 299.243 134.59 299.032C134.736 298.82 134.835 298.585 134.887 298.325C134.943 298.065 134.941 297.786 134.883 297.491L136.664 296.961C136.779 297.435 136.806 297.904 136.743 298.369C136.684 298.832 136.538 299.27 136.305 299.682C136.071 300.091 135.751 300.453 135.344 300.768C134.936 301.08 134.442 301.323 133.863 301.499C133.007 301.759 132.166 301.796 131.339 301.611C130.512 301.427 129.758 301.027 129.078 300.411C128.398 299.795 127.852 298.975 127.441 297.95C127.029 296.922 126.872 295.984 126.969 295.136C127.065 294.285 127.371 293.563 127.887 292.971C128.403 292.379 129.085 291.955 129.934 291.697C130.476 291.533 131.009 291.455 131.535 291.463C132.06 291.471 132.563 291.564 133.043 291.742C133.522 291.917 133.962 292.178 134.363 292.523C134.766 292.864 135.11 293.289 135.396 293.798ZM135.873 291.668L135.292 290.219L143.056 287.864L143.637 289.313L140.629 290.225L143.873 298.317L142.124 298.848L138.881 290.755L135.873 291.668ZM132.279 314.173L134.042 313.639L136.54 319.872C136.814 320.555 136.89 321.206 136.769 321.825C136.65 322.442 136.353 322.987 135.878 323.459C135.401 323.927 134.767 324.281 133.975 324.521C133.18 324.763 132.429 324.829 131.72 324.719C131.011 324.607 130.389 324.341 129.855 323.921C129.321 323.502 128.917 322.95 128.643 322.267L126.145 316.033L127.907 315.499L130.348 321.588C130.507 321.985 130.738 322.312 131.04 322.569C131.345 322.825 131.696 322.992 132.093 323.07C132.489 323.145 132.911 323.115 133.357 322.979C133.804 322.844 134.155 322.64 134.412 322.367C134.67 322.09 134.826 321.769 134.879 321.405C134.932 321.041 134.879 320.66 134.719 320.262L132.279 314.173ZM139.782 322.599L135.958 313.058L139.607 311.951C140.354 311.724 141.033 311.662 141.642 311.763C142.254 311.863 142.782 312.103 143.226 312.484C143.672 312.861 144.016 313.353 144.26 313.962C144.506 314.574 144.586 315.145 144.5 315.677C144.416 316.203 144.167 316.667 143.752 317.068C143.336 317.466 142.754 317.779 142.007 318.005L139.408 318.793L138.833 317.359L141.194 316.642C141.631 316.51 141.966 316.342 142.197 316.14C142.427 315.934 142.563 315.696 142.604 315.426C142.646 315.152 142.6 314.845 142.464 314.507C142.329 314.168 142.145 313.9 141.913 313.702C141.679 313.501 141.399 313.381 141.07 313.341C140.74 313.299 140.355 313.344 139.915 313.477L138.299 313.967L141.545 322.064L139.782 322.599ZM143.076 316.751L147.218 320.344L145.251 320.94L141.152 317.334L143.076 316.751ZM148.484 319.96L144.66 310.419L150.989 308.499L151.57 309.948L147.004 311.333L148.042 313.923L152.28 312.638L152.861 314.087L148.622 315.372L149.666 317.976L154.27 316.58L154.851 318.029L148.484 319.96Z" fill="#383636"/>
<mask id="path-15-outside-1_2236_30439" maskUnits="userSpaceOnUse" x="9.00195" y="105" width="271" height="38" fill="black">
<rect fill="white" x="9.00195" y="105" width="271" height="38"/>
<path d="M9.48529 142V106.326H19.1703V134.196H33.5933V142H9.48529ZM70.6784 124.163C70.6784 128.134 69.9062 131.484 68.3617 134.213C66.8172 136.931 64.7327 138.992 62.1082 140.397C59.4838 141.791 56.5574 142.487 53.329 142.487C50.0775 142.487 47.1395 141.785 44.515 140.38C41.9021 138.963 39.8235 136.896 38.279 134.179C36.7461 131.45 35.9797 128.111 35.9797 124.163C35.9797 120.191 36.7461 116.847 38.279 114.129C39.8235 111.4 41.9021 109.339 44.515 107.946C47.1395 106.54 50.0775 105.838 53.329 105.838C56.5574 105.838 59.4838 106.54 62.1082 107.946C64.7327 109.339 66.8172 111.4 68.3617 114.129C69.9062 116.847 70.6784 120.191 70.6784 124.163ZM60.7147 124.163C60.7147 122.026 60.4302 120.226 59.8612 118.763C59.3038 117.288 58.4735 116.173 57.3703 115.418C56.2787 114.652 54.9316 114.269 53.329 114.269C51.7265 114.269 50.3736 114.652 49.2704 115.418C48.1788 116.173 47.3485 117.288 46.7795 118.763C46.2221 120.226 45.9434 122.026 45.9434 124.163C45.9434 126.299 46.2221 128.105 46.7795 129.58C47.3485 131.043 48.1788 132.158 49.2704 132.924C50.3736 133.679 51.7265 134.057 53.329 134.057C54.9316 134.057 56.2787 133.679 57.3703 132.924C58.4735 132.158 59.3038 131.043 59.8612 129.58C60.4302 128.105 60.7147 126.299 60.7147 124.163ZM98.3268 118.101C98.1758 117.485 97.9378 116.945 97.6126 116.481C97.2875 116.005 96.881 115.604 96.3933 115.279C95.9172 114.942 95.3597 114.692 94.721 114.53C94.094 114.356 93.403 114.269 92.6482 114.269C91.0224 114.269 89.6347 114.658 88.485 115.436C87.347 116.214 86.476 117.334 85.8722 118.798C85.2799 120.261 84.9838 122.026 84.9838 124.093C84.9838 126.183 85.2683 127.972 85.8373 129.458C86.4064 130.944 87.2541 132.083 88.3805 132.872C89.5069 133.662 90.9063 134.057 92.5785 134.057C94.0533 134.057 95.2785 133.842 96.2539 133.412C97.241 132.982 97.9784 132.373 98.4661 131.583C98.9539 130.794 99.1977 129.864 99.1977 128.796L100.87 128.97H92.7179V122.072H108.534V127.019C108.534 130.271 107.843 133.052 106.461 135.363C105.091 137.662 103.198 139.428 100.783 140.658C98.379 141.878 95.621 142.487 92.5088 142.487C89.0366 142.487 85.9883 141.75 83.3638 140.275C80.7394 138.8 78.6897 136.699 77.2149 133.97C75.7517 131.241 75.0201 127.995 75.0201 124.232C75.0201 121.283 75.4672 118.67 76.3614 116.394C77.2672 114.118 78.5213 112.196 80.1239 110.628C81.7264 109.049 83.5787 107.858 85.6806 107.057C87.7825 106.244 90.0353 105.838 92.4391 105.838C94.5527 105.838 96.5152 106.14 98.3268 106.744C100.15 107.336 101.758 108.184 103.152 109.287C104.557 110.378 105.689 111.673 106.549 113.171C107.408 114.669 107.93 116.312 108.116 118.101H98.3268ZM147.61 124.163C147.61 128.134 146.837 131.484 145.293 134.213C143.748 136.931 141.664 138.992 139.039 140.397C136.415 141.791 133.489 142.487 130.26 142.487C127.009 142.487 124.071 141.785 121.446 140.38C118.833 138.963 116.755 136.896 115.21 134.179C113.677 131.45 112.911 128.111 112.911 124.163C112.911 120.191 113.677 116.847 115.21 114.129C116.755 111.4 118.833 109.339 121.446 107.946C124.071 106.54 127.009 105.838 130.26 105.838C133.489 105.838 136.415 106.54 139.039 107.946C141.664 109.339 143.748 111.4 145.293 114.129C146.837 116.847 147.61 120.191 147.61 124.163ZM137.646 124.163C137.646 122.026 137.361 120.226 136.792 118.763C136.235 117.288 135.405 116.173 134.301 115.418C133.21 114.652 131.863 114.269 130.26 114.269C128.658 114.269 127.305 114.652 126.202 115.418C125.11 116.173 124.28 117.288 123.711 118.763C123.153 120.226 122.875 122.026 122.875 124.163C122.875 126.299 123.153 128.105 123.711 129.58C124.28 131.043 125.11 132.158 126.202 132.924C127.305 133.679 128.658 134.057 130.26 134.057C131.863 134.057 133.21 133.679 134.301 132.924C135.405 132.158 136.235 131.043 136.792 129.58C137.361 128.105 137.646 126.299 137.646 124.163ZM149.439 114.129V106.326H180.445V114.129H169.714V142H160.169V114.129H149.439ZM182.626 106.326H193.426L200.394 120.818H200.672L207.64 106.326H218.44L205.341 130.782V142H195.725V130.782L182.626 106.326ZM221.597 142V106.326H236.995C239.643 106.326 241.96 106.848 243.946 107.893C245.931 108.938 247.476 110.407 248.579 112.3C249.682 114.193 250.234 116.405 250.234 118.937C250.234 121.492 249.665 123.704 248.527 125.574C247.4 127.443 245.815 128.883 243.771 129.894C241.739 130.904 239.364 131.409 236.647 131.409H227.45V123.884H234.696C235.834 123.884 236.804 123.687 237.605 123.292C238.418 122.885 239.039 122.31 239.469 121.567C239.91 120.824 240.131 119.947 240.131 118.937C240.131 117.915 239.91 117.044 239.469 116.324C239.039 115.592 238.418 115.035 237.605 114.652C236.804 114.257 235.834 114.06 234.696 114.06H231.282V142H221.597ZM253.787 142V106.326H279.498V114.129H263.472V120.261H278.174V128.065H263.472V134.196H279.428V142H253.787Z"/>
</mask>
<path d="M9.48529 142V106.326H19.1703V134.196H33.5933V142H9.48529ZM70.6784 124.163C70.6784 128.134 69.9062 131.484 68.3617 134.213C66.8172 136.931 64.7327 138.992 62.1082 140.397C59.4838 141.791 56.5574 142.487 53.329 142.487C50.0775 142.487 47.1395 141.785 44.515 140.38C41.9021 138.963 39.8235 136.896 38.279 134.179C36.7461 131.45 35.9797 128.111 35.9797 124.163C35.9797 120.191 36.7461 116.847 38.279 114.129C39.8235 111.4 41.9021 109.339 44.515 107.946C47.1395 106.54 50.0775 105.838 53.329 105.838C56.5574 105.838 59.4838 106.54 62.1082 107.946C64.7327 109.339 66.8172 111.4 68.3617 114.129C69.9062 116.847 70.6784 120.191 70.6784 124.163ZM60.7147 124.163C60.7147 122.026 60.4302 120.226 59.8612 118.763C59.3038 117.288 58.4735 116.173 57.3703 115.418C56.2787 114.652 54.9316 114.269 53.329 114.269C51.7265 114.269 50.3736 114.652 49.2704 115.418C48.1788 116.173 47.3485 117.288 46.7795 118.763C46.2221 120.226 45.9434 122.026 45.9434 124.163C45.9434 126.299 46.2221 128.105 46.7795 129.58C47.3485 131.043 48.1788 132.158 49.2704 132.924C50.3736 133.679 51.7265 134.057 53.329 134.057C54.9316 134.057 56.2787 133.679 57.3703 132.924C58.4735 132.158 59.3038 131.043 59.8612 129.58C60.4302 128.105 60.7147 126.299 60.7147 124.163ZM98.3268 118.101C98.1758 117.485 97.9378 116.945 97.6126 116.481C97.2875 116.005 96.881 115.604 96.3933 115.279C95.9172 114.942 95.3597 114.692 94.721 114.53C94.094 114.356 93.403 114.269 92.6482 114.269C91.0224 114.269 89.6347 114.658 88.485 115.436C87.347 116.214 86.476 117.334 85.8722 118.798C85.2799 120.261 84.9838 122.026 84.9838 124.093C84.9838 126.183 85.2683 127.972 85.8373 129.458C86.4064 130.944 87.2541 132.083 88.3805 132.872C89.5069 133.662 90.9063 134.057 92.5785 134.057C94.0533 134.057 95.2785 133.842 96.2539 133.412C97.241 132.982 97.9784 132.373 98.4661 131.583C98.9539 130.794 99.1977 129.864 99.1977 128.796L100.87 128.97H92.7179V122.072H108.534V127.019C108.534 130.271 107.843 133.052 106.461 135.363C105.091 137.662 103.198 139.428 100.783 140.658C98.379 141.878 95.621 142.487 92.5088 142.487C89.0366 142.487 85.9883 141.75 83.3638 140.275C80.7394 138.8 78.6897 136.699 77.2149 133.97C75.7517 131.241 75.0201 127.995 75.0201 124.232C75.0201 121.283 75.4672 118.67 76.3614 116.394C77.2672 114.118 78.5213 112.196 80.1239 110.628C81.7264 109.049 83.5787 107.858 85.6806 107.057C87.7825 106.244 90.0353 105.838 92.4391 105.838C94.5527 105.838 96.5152 106.14 98.3268 106.744C100.15 107.336 101.758 108.184 103.152 109.287C104.557 110.378 105.689 111.673 106.549 113.171C107.408 114.669 107.93 116.312 108.116 118.101H98.3268ZM147.61 124.163C147.61 128.134 146.837 131.484 145.293 134.213C143.748 136.931 141.664 138.992 139.039 140.397C136.415 141.791 133.489 142.487 130.26 142.487C127.009 142.487 124.071 141.785 121.446 140.38C118.833 138.963 116.755 136.896 115.21 134.179C113.677 131.45 112.911 128.111 112.911 124.163C112.911 120.191 113.677 116.847 115.21 114.129C116.755 111.4 118.833 109.339 121.446 107.946C124.071 106.54 127.009 105.838 130.26 105.838C133.489 105.838 136.415 106.54 139.039 107.946C141.664 109.339 143.748 111.4 145.293 114.129C146.837 116.847 147.61 120.191 147.61 124.163ZM137.646 124.163C137.646 122.026 137.361 120.226 136.792 118.763C136.235 117.288 135.405 116.173 134.301 115.418C133.21 114.652 131.863 114.269 130.26 114.269C128.658 114.269 127.305 114.652 126.202 115.418C125.11 116.173 124.28 117.288 123.711 118.763C123.153 120.226 122.875 122.026 122.875 124.163C122.875 126.299 123.153 128.105 123.711 129.58C124.28 131.043 125.11 132.158 126.202 132.924C127.305 133.679 128.658 134.057 130.26 134.057C131.863 134.057 133.21 133.679 134.301 132.924C135.405 132.158 136.235 131.043 136.792 129.58C137.361 128.105 137.646 126.299 137.646 124.163ZM149.439 114.129V106.326H180.445V114.129H169.714V142H160.169V114.129H149.439ZM182.626 106.326H193.426L200.394 120.818H200.672L207.64 106.326H218.44L205.341 130.782V142H195.725V130.782L182.626 106.326ZM221.597 142V106.326H236.995C239.643 106.326 241.96 106.848 243.946 107.893C245.931 108.938 247.476 110.407 248.579 112.3C249.682 114.193 250.234 116.405 250.234 118.937C250.234 121.492 249.665 123.704 248.527 125.574C247.4 127.443 245.815 128.883 243.771 129.894C241.739 130.904 239.364 131.409 236.647 131.409H227.45V123.884H234.696C235.834 123.884 236.804 123.687 237.605 123.292C238.418 122.885 239.039 122.31 239.469 121.567C239.91 120.824 240.131 119.947 240.131 118.937C240.131 117.915 239.91 117.044 239.469 116.324C239.039 115.592 238.418 115.035 237.605 114.652C236.804 114.257 235.834 114.06 234.696 114.06H231.282V142H221.597ZM253.787 142V106.326H279.498V114.129H263.472V120.261H278.174V128.065H263.472V134.196H279.428V142H253.787Z" fill="#1E1E1E"/>
<path d="M9.48529 142H9.10718V142.378H9.48529V142ZM9.48529 106.326V105.947H9.10718V106.326H9.48529ZM19.1703 106.326H19.5484V105.947H19.1703V106.326ZM19.1703 134.196H18.7922V134.574H19.1703V134.196ZM33.5933 134.196H33.9714V133.818H33.5933V134.196ZM33.5933 142V142.378H33.9714V142H33.5933ZM9.48529 142H9.8634V106.326H9.48529H9.10718V142H9.48529ZM9.48529 106.326V106.704H19.1703V106.326V105.947H9.48529V106.326ZM19.1703 106.326H18.7922V134.196H19.1703H19.5484V106.326H19.1703ZM19.1703 134.196V134.574H33.5933V134.196V133.818H19.1703V134.196ZM33.5933 134.196H33.2151V142H33.5933H33.9714V134.196H33.5933ZM33.5933 142V141.622H9.48529V142V142.378H33.5933V142ZM68.3617 134.213L68.6904 134.4L68.6907 134.4L68.3617 134.213ZM62.1082 140.397L62.2856 140.731L62.2867 140.731L62.1082 140.397ZM44.515 140.38L44.3348 140.712L44.3365 140.713L44.515 140.38ZM38.279 134.179L37.9493 134.364L37.9503 134.365L38.279 134.179ZM38.279 114.129L37.9499 113.943L37.9496 113.944L38.279 114.129ZM44.515 107.946L44.6929 108.279L44.6935 108.279L44.515 107.946ZM62.1082 107.946L61.9298 108.279L61.9309 108.279L62.1082 107.946ZM68.3617 114.129L68.0326 114.316L68.033 114.316L68.3617 114.129ZM59.8612 118.763L59.5075 118.896L59.5088 118.9L59.8612 118.763ZM57.3703 115.418L57.153 115.728L57.1567 115.73L57.3703 115.418ZM49.2704 115.418L49.4854 115.729L49.4861 115.729L49.2704 115.418ZM46.7795 118.763L46.4267 118.627L46.4261 118.628L46.7795 118.763ZM46.7795 129.58L46.4258 129.714L46.4271 129.717L46.7795 129.58ZM49.2704 132.924L49.0531 133.234L49.0569 133.236L49.2704 132.924ZM57.3703 132.924L57.5853 133.235L57.586 133.235L57.3703 132.924ZM59.8612 129.58L59.5084 129.444L59.5078 129.445L59.8612 129.58ZM70.6784 124.163H70.3003C70.3003 128.086 69.5375 131.368 68.0326 134.027L68.3617 134.213L68.6907 134.4C70.2749 131.601 71.0565 128.182 71.0565 124.163H70.6784ZM68.3617 134.213L68.033 134.027C66.5219 136.685 64.4881 138.694 61.9298 140.064L62.1082 140.397L62.2867 140.731C64.9773 139.29 67.1125 137.176 68.6904 134.4L68.3617 134.213ZM62.1082 140.397L61.9309 140.063C59.3657 141.425 56.501 142.109 53.329 142.109V142.487V142.866C56.6137 142.866 59.6018 142.156 62.2856 140.731L62.1082 140.397ZM53.329 142.487V142.109C50.1339 142.109 47.2581 141.42 44.6935 140.046L44.515 140.38L44.3365 140.713C47.0208 142.15 50.0211 142.866 53.329 142.866V142.487ZM44.515 140.38L44.6952 140.047C42.1478 138.666 40.1192 136.651 38.6077 133.992L38.279 134.179L37.9503 134.365C39.5278 137.141 41.6565 139.26 44.3348 140.712L44.515 140.38ZM38.279 134.179L38.6086 133.993C37.1148 131.334 36.3578 128.063 36.3578 124.163H35.9797H35.6016C35.6016 128.159 36.3774 131.565 37.9493 134.364L38.279 134.179ZM35.9797 124.163H36.3578C36.3578 120.239 37.115 116.962 38.6083 114.315L38.279 114.129L37.9496 113.944C36.3772 116.731 35.6016 120.143 35.6016 124.163H35.9797ZM38.279 114.129L38.608 114.316C40.1193 111.645 42.1472 109.637 44.6929 108.279L44.515 107.946L44.3371 107.612C41.6571 109.041 39.5276 111.155 37.9499 113.943L38.279 114.129ZM44.515 107.946L44.6935 108.279C47.2581 106.906 50.1339 106.216 53.329 106.216V105.838V105.46C50.0211 105.46 47.0208 106.175 44.3365 107.612L44.515 107.946ZM53.329 105.838V106.216C56.5005 106.216 59.3648 106.906 61.9298 108.279L62.1082 107.946L62.2867 107.612C59.6028 106.175 56.6142 105.46 53.329 105.46V105.838ZM62.1082 107.946L61.9309 108.279C64.4882 109.637 66.5215 111.646 68.0326 114.316L68.3617 114.129L68.6907 113.943C67.1128 111.155 64.9772 109.041 62.2856 107.612L62.1082 107.946ZM68.3617 114.129L68.033 114.316C69.5374 116.963 70.3003 120.239 70.3003 124.163H70.6784H71.0565C71.0565 120.143 70.2749 116.73 68.6904 113.942L68.3617 114.129ZM60.7147 124.163H61.0928C61.0928 121.995 60.8045 120.145 60.2136 118.626L59.8612 118.763L59.5088 118.9C60.0559 120.307 60.3366 122.057 60.3366 124.163H60.7147ZM59.8612 118.763L60.2149 118.629C59.6351 117.095 58.7617 115.912 57.5838 115.106L57.3703 115.418L57.1567 115.73C58.1852 116.434 58.9724 117.481 59.5075 118.896L59.8612 118.763ZM57.3703 115.418L57.5875 115.109C56.4204 114.289 54.9934 113.891 53.329 113.891V114.269V114.647C54.8698 114.647 56.137 115.014 57.153 115.728L57.3703 115.418ZM53.329 114.269V113.891C51.6646 113.891 50.2326 114.289 49.0547 115.108L49.2704 115.418L49.4861 115.729C50.5146 115.014 51.7884 114.647 53.329 114.647V114.269ZM49.2704 115.418L49.0553 115.107C47.8902 115.913 47.0177 117.095 46.4267 118.627L46.7795 118.763L47.1322 118.899C47.6793 117.481 48.4674 116.433 49.4854 115.729L49.2704 115.418ZM46.7795 118.763L46.4261 118.628C45.8476 120.147 45.5652 121.996 45.5652 124.163H45.9434H46.3215C46.3215 122.056 46.5966 120.305 47.1328 118.897L46.7795 118.763ZM45.9434 124.163H45.5652C45.5652 126.33 45.8476 128.184 46.4258 129.714L46.7795 129.58L47.1332 129.446C46.5965 128.026 46.3215 126.269 46.3215 124.163H45.9434ZM46.7795 129.58L46.4271 129.717C47.0182 131.237 47.8903 132.417 49.0531 133.234L49.2704 132.924L49.4877 132.615C48.4673 131.899 47.6787 130.849 47.1319 129.443L46.7795 129.58ZM49.2704 132.924L49.0569 133.236C50.2346 134.042 51.6657 134.435 53.329 134.435V134.057V133.679C51.7873 133.679 50.5126 133.316 49.4839 132.612L49.2704 132.924ZM53.329 134.057V134.435C54.9922 134.435 56.4184 134.042 57.5853 133.235L57.3703 132.924L57.1552 132.613C56.1389 133.316 54.871 133.679 53.329 133.679V134.057ZM57.3703 132.924L57.586 133.235C58.7616 132.418 59.6346 131.237 60.2145 129.715L59.8612 129.58L59.5078 129.445C58.9729 130.85 58.1853 131.898 57.1545 132.614L57.3703 132.924ZM59.8612 129.58L60.2139 129.716C60.8045 128.186 61.0928 126.331 61.0928 124.163H60.7147H60.3366C60.3366 126.268 60.0559 128.025 59.5084 129.444L59.8612 129.58ZM98.3268 118.101L97.9596 118.191L98.0302 118.479H98.3268V118.101ZM97.6126 116.481L97.3003 116.694L97.3028 116.698L97.6126 116.481ZM96.3933 115.279L96.1748 115.588L96.1835 115.594L96.3933 115.279ZM94.721 114.53L94.6198 114.894L94.6278 114.896L94.721 114.53ZM88.485 115.436L88.2731 115.123L88.2716 115.124L88.485 115.436ZM85.8722 118.798L85.5226 118.653L85.5217 118.656L85.8722 118.798ZM85.8373 129.458L85.4842 129.593V129.593L85.8373 129.458ZM88.3805 132.872L88.1635 133.182V133.182L88.3805 132.872ZM96.2539 133.412L96.103 133.065L96.1015 133.066L96.2539 133.412ZM98.4661 131.583L98.1444 131.384V131.384L98.4661 131.583ZM99.1977 128.796L99.2369 128.42L98.8196 128.377V128.796H99.1977ZM100.87 128.97V129.348L100.909 128.594L100.87 128.97ZM92.7178 128.97H92.3397V129.348H92.7178V128.97ZM92.7178 122.072V121.694H92.3397V122.072H92.7178ZM108.534 122.072H108.912V121.694H108.534V122.072ZM106.461 135.363L106.137 135.169L106.137 135.17L106.461 135.363ZM100.783 140.658L100.954 140.996L100.955 140.995L100.783 140.658ZM83.3638 140.275L83.1786 140.605V140.605L83.3638 140.275ZM77.2149 133.97L76.8817 134.148L76.8823 134.149L77.2149 133.97ZM76.3614 116.394L76.01 116.254L76.0094 116.255L76.3614 116.394ZM80.1239 110.628L80.3883 110.898L80.3893 110.897L80.1239 110.628ZM85.6806 107.057L85.8152 107.41L85.8169 107.41L85.6806 107.057ZM98.3268 106.744L98.2072 107.102L98.21 107.103L98.3268 106.744ZM103.152 109.287L102.917 109.583L102.92 109.585L103.152 109.287ZM106.549 113.171L106.877 112.983V112.983L106.549 113.171ZM108.116 118.101V118.479H108.536L108.492 118.062L108.116 118.101ZM98.3268 118.101L98.694 118.011C98.5332 117.355 98.2773 116.771 97.9224 116.264L97.6126 116.481L97.3028 116.698C97.5982 117.12 97.8184 117.616 97.9596 118.191L98.3268 118.101ZM97.6126 116.481L97.9249 116.268C97.5719 115.751 97.1304 115.316 96.603 114.964L96.3933 115.279L96.1835 115.594C96.6316 115.892 97.003 116.259 97.3004 116.694L97.6126 116.481ZM96.3933 115.279L96.6116 114.97C96.0931 114.603 95.4921 114.336 94.8143 114.163L94.721 114.53L94.6278 114.896C95.2274 115.049 95.7412 115.281 96.1749 115.588L96.3933 115.279ZM94.721 114.53L94.8222 114.166C94.1574 113.981 93.4319 113.891 92.6482 113.891V114.269V114.647C93.3741 114.647 94.0305 114.731 94.6198 114.894L94.721 114.53ZM92.6482 114.269V113.891C90.9601 113.891 89.4955 114.295 88.2731 115.123L88.485 115.436L88.6969 115.749C89.7739 115.02 91.0847 114.647 92.6482 114.647V114.269ZM88.485 115.436L88.2716 115.124C87.0642 115.949 86.1503 117.132 85.5227 118.653L85.8722 118.798L86.2217 118.942C86.8017 117.536 87.6297 116.478 88.6984 115.748L88.485 115.436ZM85.8722 118.798L85.5217 118.656C84.9065 120.176 84.6057 121.992 84.6057 124.093H84.9838H85.3619C85.3619 122.06 85.6533 120.346 86.2227 118.939L85.8722 118.798ZM84.9838 124.093H84.6057C84.6057 126.216 84.8944 128.052 85.4842 129.593L85.8373 129.458L86.1904 129.323C85.6422 127.891 85.3619 126.151 85.3619 124.093H84.9838ZM85.8373 129.458L85.4842 129.593C86.0758 131.139 86.966 132.342 88.1635 133.182L88.3805 132.872L88.5976 132.563C87.5421 131.823 86.7369 130.75 86.1904 129.323L85.8373 129.458ZM88.3805 132.872L88.1635 133.182C89.3661 134.025 90.8456 134.435 92.5785 134.435V134.057V133.679C90.9669 133.679 89.6478 133.299 88.5976 132.563L88.3805 132.872ZM92.5785 134.057V134.435C94.087 134.435 95.3682 134.215 96.4063 133.758L96.2539 133.412L96.1015 133.066C95.1887 133.468 94.0197 133.679 92.5785 133.679V134.057ZM96.2539 133.412L96.4048 133.759C97.451 133.303 98.2534 132.647 98.7878 131.782L98.4661 131.583L98.1444 131.384C97.7034 132.099 97.031 132.662 96.103 133.065L96.2539 133.412ZM98.4661 131.583L98.7878 131.782C99.3177 130.924 99.5759 129.924 99.5759 128.796H99.1977H98.8196C98.8196 129.805 98.59 130.663 98.1444 131.384L98.4661 131.583ZM99.1977 128.796L99.1586 129.172L100.831 129.346L100.87 128.97L100.909 128.594L99.2369 128.42L99.1977 128.796ZM100.87 128.97V128.592H92.7178V128.97V129.348H100.87V128.97ZM92.7178 128.97H93.096V122.072H92.7178H92.3397V128.97H92.7178ZM92.7178 122.072V122.45H108.534V122.072V121.694H92.7178V122.072ZM108.534 122.072H108.156V127.019H108.534H108.912V122.072H108.534ZM108.534 127.019H108.156C108.156 130.217 107.477 132.928 106.137 135.169L106.461 135.363L106.786 135.557C108.21 133.176 108.912 130.325 108.912 127.019H108.534ZM106.461 135.363L106.137 135.17C104.803 137.407 102.964 139.123 100.611 140.322L100.783 140.658L100.955 140.995C103.433 139.732 105.379 137.918 106.786 135.557L106.461 135.363ZM100.783 140.658L100.612 140.321C98.2687 141.51 95.5708 142.109 92.5088 142.109V142.487V142.866C95.6712 142.866 98.4894 142.246 100.954 140.996L100.783 140.658ZM92.5088 142.487V142.109C89.0915 142.109 86.1088 141.384 83.5491 139.946L83.3638 140.275L83.1786 140.605C85.8678 142.116 88.9818 142.866 92.5088 142.866V142.487ZM83.3638 140.275L83.5491 139.946C80.9889 138.507 78.9895 136.458 77.5475 133.79L77.2149 133.97L76.8823 134.149C78.39 136.939 80.4898 139.094 83.1786 140.605L83.3638 140.275ZM77.2149 133.97L77.5481 133.791C76.1201 131.127 75.3982 127.946 75.3982 124.232H75.0201H74.642C74.642 128.044 75.3833 131.354 76.8817 134.148L77.2149 133.97ZM75.0201 124.232H75.3982C75.3982 121.321 75.8396 118.756 76.7133 116.532L76.3614 116.394L76.0094 116.255C75.0948 118.584 74.642 121.245 74.642 124.232H75.0201ZM76.3614 116.394L76.7127 116.534C77.6008 114.302 78.8269 112.426 80.3883 110.898L80.1239 110.628L79.8595 110.358C78.2158 111.966 76.9335 113.933 76.0101 116.254L76.3614 116.394ZM80.1239 110.628L80.3893 110.897C81.9546 109.355 83.7623 108.193 85.8152 107.41L85.6806 107.057L85.5459 106.704C83.395 107.524 81.4983 108.743 79.8585 110.359L80.1239 110.628ZM85.6806 107.057L85.8169 107.41C87.8725 106.615 90.0788 106.216 92.4391 106.216V105.838V105.46C89.9918 105.46 87.6924 105.874 85.5442 106.704L85.6806 107.057ZM92.4391 105.838V106.216C94.5163 106.216 96.4381 106.513 98.2072 107.102L98.3268 106.744L98.4464 106.385C96.5923 105.767 94.589 105.46 92.4391 105.46V105.838ZM98.3268 106.744L98.21 107.103C99.9938 107.683 101.562 108.51 102.917 109.583L103.152 109.287L103.387 108.99C101.955 107.857 100.306 106.989 98.4436 106.384L98.3268 106.744ZM103.152 109.287L102.92 109.585C104.287 110.648 105.387 111.905 106.221 113.359L106.549 113.171L106.877 112.983C105.992 111.441 104.827 110.109 103.384 108.988L103.152 109.287ZM106.549 113.171L106.221 113.359C107.053 114.81 107.56 116.402 107.74 118.14L108.116 118.101L108.492 118.062C108.301 116.223 107.763 114.529 106.877 112.983L106.549 113.171ZM108.116 118.101V117.723H98.3268V118.101V118.479H108.116V118.101ZM145.293 134.213L145.622 134.4L145.622 134.4L145.293 134.213ZM139.039 140.397L139.217 140.731L139.218 140.731L139.039 140.397ZM121.446 140.38L121.266 140.712L121.268 140.713L121.446 140.38ZM115.21 134.179L114.881 134.364L114.881 134.365L115.21 134.179ZM115.21 114.129L114.881 113.943L114.881 113.944L115.21 114.129ZM121.446 107.946L121.624 108.279L121.625 108.279L121.446 107.946ZM139.039 107.946L138.861 108.279L138.862 108.279L139.039 107.946ZM145.293 114.129L144.964 114.316L144.964 114.316L145.293 114.129ZM136.792 118.763L136.439 118.896L136.44 118.9L136.792 118.763ZM134.301 115.418L134.084 115.728L134.088 115.73L134.301 115.418ZM126.202 115.418L126.417 115.729L126.417 115.729L126.202 115.418ZM123.711 118.763L123.358 118.627L123.357 118.628L123.711 118.763ZM123.711 129.58L123.357 129.714L123.358 129.717L123.711 129.58ZM126.202 132.924L125.984 133.234L125.988 133.236L126.202 132.924ZM134.301 132.924L134.517 133.235L134.517 133.235L134.301 132.924ZM136.792 129.58L136.44 129.444L136.439 129.445L136.792 129.58ZM147.61 124.163H147.232C147.232 128.086 146.469 131.368 144.964 134.027L145.293 134.213L145.622 134.4C147.206 131.601 147.988 128.182 147.988 124.163H147.61ZM145.293 134.213L144.964 134.027C143.453 136.685 141.419 138.694 138.861 140.064L139.039 140.397L139.218 140.731C141.909 139.29 144.044 137.176 145.622 134.4L145.293 134.213ZM139.039 140.397L138.862 140.063C136.297 141.425 133.432 142.109 130.26 142.109V142.487V142.866C133.545 142.866 136.533 142.156 139.217 140.731L139.039 140.397ZM130.26 142.487V142.109C127.065 142.109 124.189 141.42 121.625 140.046L121.446 140.38L121.268 140.713C123.952 142.15 126.952 142.866 130.26 142.866V142.487ZM121.446 140.38L121.626 140.047C119.079 138.666 117.05 136.651 115.539 133.992L115.21 134.179L114.881 134.365C116.459 137.141 118.588 139.26 121.266 140.712L121.446 140.38ZM115.21 134.179L115.54 133.993C114.046 131.334 113.289 128.063 113.289 124.163H112.911H112.533C112.533 128.159 113.309 131.565 114.881 134.364L115.21 134.179ZM112.911 124.163H113.289C113.289 120.239 114.046 116.962 115.54 114.315L115.21 114.129L114.881 113.944C113.308 116.731 112.533 120.143 112.533 124.163H112.911ZM115.21 114.129L115.539 114.316C117.051 111.645 119.078 109.637 121.624 108.279L121.446 107.946L121.268 107.612C118.588 109.041 116.459 111.155 114.881 113.943L115.21 114.129ZM121.446 107.946L121.625 108.279C124.189 106.906 127.065 106.216 130.26 106.216V105.838V105.46C126.952 105.46 123.952 106.175 121.268 107.612L121.446 107.946ZM130.26 105.838V106.216C133.432 106.216 136.296 106.906 138.861 108.279L139.039 107.946L139.218 107.612C136.534 106.175 133.545 105.46 130.26 105.46V105.838ZM139.039 107.946L138.862 108.279C141.419 109.637 143.453 111.646 144.964 114.316L145.293 114.129L145.622 113.943C144.044 111.155 141.908 109.041 139.217 107.612L139.039 107.946ZM145.293 114.129L144.964 114.316C146.469 116.963 147.232 120.239 147.232 124.163H147.61H147.988C147.988 120.143 147.206 116.73 145.622 113.942L145.293 114.129ZM137.646 124.163H138.024C138.024 121.995 137.736 120.145 137.145 118.626L136.792 118.763L136.44 118.9C136.987 120.307 137.268 122.057 137.268 124.163H137.646ZM136.792 118.763L137.146 118.629C136.566 117.095 135.693 115.912 134.515 115.106L134.301 115.418L134.088 115.73C135.116 116.434 135.904 117.481 136.439 118.896L136.792 118.763ZM134.301 115.418L134.519 115.109C133.352 114.289 131.925 113.891 130.26 113.891V114.269V114.647C131.801 114.647 133.068 115.014 134.084 115.728L134.301 115.418ZM130.26 114.269V113.891C128.596 113.891 127.164 114.289 125.986 115.108L126.202 115.418L126.417 115.729C127.446 115.014 128.72 114.647 130.26 114.647V114.269ZM126.202 115.418L125.987 115.107C124.821 115.913 123.949 117.095 123.358 118.627L123.711 118.763L124.063 118.899C124.61 117.481 125.399 116.433 126.417 115.729L126.202 115.418ZM123.711 118.763L123.357 118.628C122.779 120.147 122.496 121.996 122.496 124.163H122.875H123.253C123.253 122.056 123.528 120.305 124.064 118.897L123.711 118.763ZM122.875 124.163H122.496C122.496 126.33 122.779 128.184 123.357 129.714L123.711 129.58L124.064 129.446C123.528 128.026 123.253 126.269 123.253 124.163H122.875ZM123.711 129.58L123.358 129.717C123.949 131.237 124.822 132.417 125.984 133.234L126.202 132.924L126.419 132.615C125.399 131.899 124.61 130.849 124.063 129.443L123.711 129.58ZM126.202 132.924L125.988 133.236C127.166 134.042 128.597 134.435 130.26 134.435V134.057V133.679C128.718 133.679 127.444 133.316 126.415 132.612L126.202 132.924ZM130.26 134.057V134.435C131.923 134.435 133.35 134.042 134.517 133.235L134.301 132.924L134.086 132.613C133.07 133.316 131.802 133.679 130.26 133.679V134.057ZM134.301 132.924L134.517 133.235C135.693 132.418 136.566 131.237 137.146 129.715L136.792 129.58L136.439 129.445C135.904 130.85 135.117 131.898 134.086 132.614L134.301 132.924ZM136.792 129.58L137.145 129.716C137.736 128.186 138.024 126.331 138.024 124.163H137.646H137.268C137.268 126.268 136.987 128.025 136.44 129.444L136.792 129.58ZM149.439 114.129H149.061V114.507H149.439V114.129ZM149.439 106.326V105.947H149.061V106.326H149.439ZM180.445 106.326H180.823V105.947H180.445V106.326ZM180.445 114.129V114.507H180.823V114.129H180.445ZM169.714 114.129V113.751H169.336V114.129H169.714ZM169.714 142V142.378H170.092V142H169.714ZM160.169 142H159.791V142.378H160.169V142ZM160.169 114.129H160.547V113.751H160.169V114.129ZM149.439 114.129H149.817V106.326H149.439H149.061V114.129H149.439ZM149.439 106.326V106.704H180.445V106.326V105.947H149.439V106.326ZM180.445 106.326H180.066V114.129H180.445H180.823V106.326H180.445ZM180.445 114.129V113.751H169.714V114.129V114.507H180.445V114.129ZM169.714 114.129H169.336V142H169.714H170.092V114.129H169.714ZM169.714 142V141.622H160.169V142V142.378H169.714V142ZM160.169 142H160.547V114.129H160.169H159.791V142H160.169ZM160.169 114.129V113.751H149.439V114.129V114.507H160.169V114.129ZM182.626 106.326V105.947H181.995L182.293 106.504L182.626 106.326ZM193.426 106.326L193.767 106.162L193.664 105.947H193.426V106.326ZM200.394 120.818L200.053 120.982L200.156 121.196H200.394V120.818ZM200.672 120.818V121.196H200.91L201.013 120.982L200.672 120.818ZM207.64 106.326V105.947H207.402L207.299 106.162L207.64 106.326ZM218.44 106.326L218.773 106.504L219.071 105.947H218.44V106.326ZM205.341 130.782L205.007 130.603L204.963 130.687V130.782H205.341ZM205.341 142V142.378H205.719V142H205.341ZM195.725 142H195.347V142.378H195.725V142ZM195.725 130.782H196.104V130.687L196.059 130.603L195.725 130.782ZM182.626 106.326V106.704H193.426V106.326V105.947H182.626V106.326ZM193.426 106.326L193.085 106.489L200.053 120.982L200.394 120.818L200.734 120.654L193.767 106.162L193.426 106.326ZM200.394 120.818V121.196H200.672V120.818V120.44H200.394V120.818ZM200.672 120.818L201.013 120.982L207.981 106.489L207.64 106.326L207.299 106.162L200.332 120.654L200.672 120.818ZM207.64 106.326V106.704H218.44V106.326V105.947H207.64V106.326ZM218.44 106.326L218.107 106.147L205.007 130.603L205.341 130.782L205.674 130.96L218.773 106.504L218.44 106.326ZM205.341 130.782H204.963V142H205.341H205.719V130.782H205.341ZM205.341 142V141.622H195.725V142V142.378H205.341V142ZM195.725 142H196.104V130.782H195.725H195.347V142H195.725ZM195.725 130.782L196.059 130.603L182.96 106.147L182.626 106.326L182.293 106.504L195.392 130.96L195.725 130.782ZM221.597 142H221.219V142.378H221.597V142ZM221.597 106.326V105.947H221.219V106.326H221.597ZM243.946 107.893L243.77 108.228V108.228L243.946 107.893ZM248.579 112.3L248.906 112.11V112.11L248.579 112.3ZM248.527 125.574L248.204 125.377L248.203 125.378L248.527 125.574ZM243.771 129.894L243.604 129.555L243.603 129.555L243.771 129.894ZM227.45 131.409H227.072V131.787H227.45V131.409ZM227.45 123.884V123.506H227.072V123.884H227.45ZM237.605 123.292L237.772 123.631L237.774 123.63L237.605 123.292ZM239.469 121.567L239.144 121.374L239.142 121.378L239.469 121.567ZM239.469 116.324L239.143 116.516L239.147 116.522L239.469 116.324ZM237.605 114.652L237.438 114.991L237.444 114.994L237.605 114.652ZM231.282 114.06V113.681H230.904V114.06H231.282ZM231.282 142V142.378H231.66V142H231.282ZM221.597 142H221.975V106.326H221.597H221.219V142H221.597ZM221.597 106.326V106.704H236.995V106.326V105.947H221.597V106.326ZM236.995 106.326V106.704C239.593 106.704 241.847 107.216 243.77 108.228L243.946 107.893L244.122 107.559C242.073 106.48 239.694 105.947 236.995 105.947V106.326ZM243.946 107.893L243.77 108.228C245.694 109.241 247.186 110.661 248.252 112.491L248.579 112.3L248.906 112.11C247.766 110.154 246.169 108.636 244.122 107.559L243.946 107.893ZM248.579 112.3L248.252 112.491C249.317 114.317 249.856 116.462 249.856 118.937H250.234H250.612C250.612 116.349 250.048 114.069 248.906 112.11L248.579 112.3ZM250.234 118.937H249.856C249.856 121.434 249.3 123.576 248.204 125.377L248.527 125.574L248.85 125.77C250.03 123.832 250.612 121.549 250.612 118.937H250.234ZM248.527 125.574L248.203 125.378C247.116 127.183 245.586 128.575 243.604 129.555L243.771 129.894L243.939 130.232C246.045 129.192 247.685 127.703 248.851 125.769L248.527 125.574ZM243.771 129.894L243.603 129.555C241.633 130.535 239.317 131.031 236.647 131.031V131.409V131.787C239.411 131.787 241.846 131.273 243.94 130.232L243.771 129.894ZM236.647 131.409V131.031H227.45V131.409V131.787H236.647V131.409ZM227.45 131.409H227.828V123.884H227.45H227.072V131.409H227.45ZM227.45 123.884V124.262H234.696V123.884V123.506H227.45V123.884ZM234.696 123.884V124.262C235.877 124.262 236.907 124.057 237.772 123.631L237.605 123.292L237.438 122.953C236.701 123.316 235.792 123.506 234.696 123.506V123.884ZM237.605 123.292L237.774 123.63C238.649 123.192 239.327 122.568 239.796 121.756L239.469 121.567L239.142 121.378C238.751 122.053 238.187 122.578 237.436 122.954L237.605 123.292ZM239.469 121.567L239.794 121.76C240.276 120.949 240.509 120.004 240.509 118.937H240.131H239.753C239.753 119.891 239.545 120.699 239.144 121.374L239.469 121.567ZM240.131 118.937H240.509C240.509 117.86 240.276 116.917 239.791 116.126L239.469 116.324L239.147 116.522C239.544 117.171 239.753 117.97 239.753 118.937H240.131ZM239.469 116.324L239.795 116.133C239.324 115.331 238.644 114.723 237.766 114.31L237.605 114.652L237.444 114.994C238.192 115.347 238.754 115.854 239.143 116.516L239.469 116.324ZM237.605 114.652L237.772 114.313C236.907 113.886 235.877 113.681 234.696 113.681V114.06V114.438C235.792 114.438 236.701 114.628 237.438 114.991L237.605 114.652ZM234.696 114.06V113.681H231.282V114.06V114.438H234.696V114.06ZM231.282 114.06H230.904V142H231.282H231.66V114.06H231.282ZM231.282 142V141.622H221.597V142V142.378H231.282V142ZM253.787 142H253.409V142.378H253.787V142ZM253.787 106.326V105.947H253.409V106.326H253.787ZM279.498 106.326H279.876V105.947H279.498V106.326ZM279.498 114.129V114.507H279.876V114.129H279.498ZM263.472 114.129V113.751H263.094V114.129H263.472ZM263.472 120.261H263.094V120.639H263.472V120.261ZM278.174 120.261H278.552V119.883H278.174V120.261ZM278.174 128.065V128.443H278.552V128.065H278.174ZM263.472 128.065V127.686H263.094V128.065H263.472ZM263.472 134.196H263.094V134.574H263.472V134.196ZM279.428 134.196H279.806V133.818H279.428V134.196ZM279.428 142V142.378H279.806V142H279.428ZM253.787 142H254.166V106.326H253.787H253.409V142H253.787ZM253.787 106.326V106.704H279.498V106.326V105.947H253.787V106.326ZM279.498 106.326H279.12V114.129H279.498H279.876V106.326H279.498ZM279.498 114.129V113.751H263.472V114.129V114.507H279.498V114.129ZM263.472 114.129H263.094V120.261H263.472H263.851V114.129H263.472ZM263.472 120.261V120.639H278.174V120.261V119.883H263.472V120.261ZM278.174 120.261H277.796V128.065H278.174H278.552V120.261H278.174ZM278.174 128.065V127.686H263.472V128.065V128.443H278.174V128.065ZM263.472 128.065H263.094V134.196H263.472H263.851V128.065H263.472ZM263.472 134.196V134.574H279.428V134.196V133.818H263.472V134.196ZM279.428 134.196H279.05V142H279.428H279.806V134.196H279.428ZM279.428 142V141.622H253.787V142V142.378H279.428V142Z" fill="#FBFBFB" mask="url(#path-15-outside-1_2236_30439)"/>
<path d="M9.41977 165V154.782H11.2707V163.448H15.7707V165H9.41977ZM26.1089 159.891C26.1089 160.992 25.9027 161.935 25.4903 162.72C25.0812 163.501 24.5225 164.1 23.814 164.516C23.1089 164.932 22.309 165.139 21.4144 165.139C20.5197 165.139 19.7181 164.932 19.0097 164.516C18.3046 164.097 17.7459 163.496 17.3334 162.715C16.9243 161.93 16.7198 160.989 16.7198 159.891C16.7198 158.79 16.9243 157.849 17.3334 157.067C17.7459 156.282 18.3046 155.682 19.0097 155.266C19.7181 154.851 20.5197 154.643 21.4144 154.643C22.309 154.643 23.1089 154.851 23.814 155.266C24.5225 155.682 25.0812 156.282 25.4903 157.067C25.9027 157.849 26.1089 158.79 26.1089 159.891ZM24.2481 159.891C24.2481 159.116 24.1267 158.463 23.8839 157.93C23.6444 157.395 23.3118 156.991 22.8861 156.718C22.4604 156.442 21.9698 156.304 21.4144 156.304C20.8589 156.304 20.3684 156.442 19.9426 156.718C19.5169 156.991 19.1827 157.395 18.9399 157.93C18.7004 158.463 18.5807 159.116 18.5807 159.891C18.5807 160.666 18.7004 161.321 18.9399 161.857C19.1827 162.389 19.5169 162.793 19.9426 163.069C20.3684 163.342 20.8589 163.478 21.4144 163.478C21.9698 163.478 22.4604 163.342 22.8861 163.069C23.3118 162.793 23.6444 162.389 23.8839 161.857C24.1267 161.321 24.2481 160.666 24.2481 159.891ZM28.677 154.782L31.3361 162.825H31.4408L34.0949 154.782H36.1304L32.5284 165H30.2435L26.6465 154.782H28.677ZM37.4762 165V154.782H44.1214V156.334H39.3271V159.108H43.7772V160.659H39.3271V163.448H44.1613V165H37.4762Z" fill="#DD3737"/>
<path d="M281.897 310.782V321H280.046V310.782H281.897ZM292.298 310.782V321H290.651L285.837 314.04H285.752V321H283.901V310.782H285.558L290.367 317.747H290.457V310.782H292.298ZM293.866 312.334V310.782H302.017V312.334H298.859V321H297.024V312.334H293.866ZM303.589 321V310.782H310.234V312.334H305.44V315.108H309.89V316.659H305.44V319.448H310.274V321H303.589ZM312.123 321V310.782H315.954C316.739 310.782 317.397 310.919 317.93 311.192C318.465 311.464 318.869 311.847 319.142 312.339C319.418 312.828 319.556 313.398 319.556 314.05C319.556 314.705 319.416 315.274 319.137 315.756C318.861 316.235 318.453 316.606 317.915 316.869C317.376 317.128 316.714 317.258 315.929 317.258H313.2V315.721H315.68C316.139 315.721 316.514 315.658 316.807 315.532C317.1 315.402 317.316 315.214 317.456 314.968C317.599 314.719 317.67 314.413 317.67 314.05C317.67 313.688 317.599 313.378 317.456 313.122C317.313 312.863 317.095 312.667 316.802 312.534C316.509 312.397 316.132 312.329 315.67 312.329H313.973V321H312.123ZM317.401 316.37L319.93 321H317.865L315.38 316.37H317.401ZM323.709 321V310.782H328.139C328.918 310.782 329.571 310.887 330.1 311.097C330.632 311.306 331.033 311.602 331.302 311.985C331.575 312.367 331.711 312.818 331.711 313.337C331.711 313.713 331.628 314.055 331.462 314.365C331.299 314.674 331.07 314.933 330.774 315.143C330.478 315.349 330.132 315.492 329.736 315.572V315.672C330.175 315.688 330.574 315.8 330.933 316.006C331.292 316.209 331.578 316.49 331.791 316.849C332.004 317.205 332.111 317.624 332.111 318.106C332.111 318.665 331.964 319.162 331.672 319.598C331.382 320.034 330.97 320.376 330.434 320.626C329.899 320.875 329.26 321 328.519 321H323.709ZM326.483 318.785H327.78C328.246 318.785 328.595 318.698 328.828 318.525C329.061 318.349 329.177 318.09 329.177 317.747C329.177 317.508 329.122 317.305 329.012 317.138C328.903 316.972 328.746 316.846 328.544 316.759C328.344 316.673 328.103 316.629 327.82 316.629H326.483V318.785ZM326.483 314.913H327.621C327.863 314.913 328.078 314.875 328.264 314.799C328.45 314.722 328.595 314.612 328.698 314.469C328.805 314.323 328.858 314.145 328.858 313.935C328.858 313.619 328.745 313.378 328.519 313.212C328.292 313.042 328.006 312.958 327.66 312.958H326.483V314.913ZM333.093 321V310.782H335.867V318.765H339.998V321H333.093ZM343.773 321H340.78L344.153 310.782H347.944L351.317 321H348.323L346.088 313.596H346.008L343.773 321ZM343.215 316.969H348.842V319.044H343.215V316.969ZM361.359 314.614H358.546C358.526 314.381 358.472 314.17 358.386 313.98C358.303 313.791 358.186 313.628 358.037 313.491C357.89 313.352 357.712 313.245 357.503 313.172C357.293 313.096 357.056 313.057 356.79 313.057C356.324 313.057 355.93 313.17 355.607 313.397C355.288 313.623 355.045 313.947 354.879 314.369C354.716 314.792 354.634 315.299 354.634 315.891C354.634 316.516 354.717 317.04 354.884 317.463C355.053 317.882 355.298 318.198 355.617 318.411C355.936 318.62 356.321 318.725 356.77 318.725C357.026 318.725 357.255 318.693 357.458 318.63C357.661 318.564 357.837 318.469 357.987 318.346C358.137 318.223 358.258 318.075 358.351 317.902C358.447 317.725 358.512 317.527 358.546 317.308L361.359 317.328C361.326 317.76 361.205 318.201 360.995 318.65C360.786 319.096 360.488 319.508 360.102 319.887C359.72 320.263 359.246 320.566 358.68 320.795C358.115 321.025 357.458 321.139 356.71 321.139C355.772 321.139 354.93 320.938 354.185 320.536C353.444 320.133 352.857 319.541 352.424 318.76C351.995 317.978 351.781 317.022 351.781 315.891C351.781 314.754 352 313.796 352.439 313.017C352.878 312.236 353.47 311.646 354.215 311.246C354.96 310.844 355.792 310.643 356.71 310.643C357.355 310.643 357.949 310.731 358.491 310.907C359.033 311.083 359.508 311.341 359.918 311.68C360.327 312.016 360.656 312.43 360.905 312.923C361.155 313.415 361.306 313.979 361.359 314.614ZM362.618 321V310.782H365.392V314.913H365.531L368.604 310.782H371.837L368.385 315.332L371.917 321H368.604L366.31 317.168L365.392 318.366V321H362.618Z" fill="#D9D9D9"/>
</svg>
