<svg width="40" height="42" viewBox="0 0 40 42" fill="none" xmlns="http://www.w3.org/2000/svg">
<path d="M14.9126 30.9053L15.0931 30.6903C16.5542 28.9577 18.0248 27.1891 19.5907 25.545C21.1495 23.9082 27.5683 17.3918 29.2283 15.8483L29.4338 15.6581L29.6271 15.861C30.5145 16.7927 31.7139 17.3191 32.9615 17.3256C34.209 17.332 35.4028 16.8185 36.2798 15.8978C37.1568 14.9769 37.6464 13.7229 37.6403 12.4129C37.634 11.103 37.1327 9.84342 36.2455 8.9117C35.3866 8.0099 34.2858 7.52643 33.1757 7.4507L32.9204 7.43302L32.9043 7.16571C32.8322 5.99996 32.3718 4.84433 31.5128 3.94245C30.6254 3.0106 29.4255 2.48363 28.1777 2.4772C26.9301 2.47079 25.7364 2.98552 24.8594 3.90638C23.9826 4.82719 23.4929 6.08004 23.499 7.38988C23.5051 8.70005 24.0069 9.95991 24.8944 10.8918L25.0877 11.0947L24.9059 11.3097C23.436 13.0527 17.2305 19.7932 15.6716 21.43C14.1058 23.0741 12.4207 24.6176 10.7706 26.1517L10.5666 26.3419L10.3733 26.139C9.48582 25.2071 8.2859 24.6802 7.03815 24.6737C5.79052 24.6673 4.59688 25.182 3.71986 26.1029C2.84301 27.0237 2.35335 28.2766 2.35941 29.5864C2.36552 30.8966 2.8674 32.1564 3.75488 33.0883C4.61387 33.9902 5.71435 34.4737 6.82466 34.5493L7.07924 34.5663L7.09607 34.8343C7.16816 36 7.62859 37.1557 8.48751 38.0575C9.37491 38.9892 10.5744 39.5156 11.822 39.5221C13.0695 39.5285 14.2633 39.0151 15.1403 38.0943C16.0173 37.1735 16.5068 35.9194 16.5007 34.6094C16.4945 33.2996 15.9931 32.0399 15.1059 31.1082L14.9126 30.9053Z" fill="#212121" stroke="#212121" stroke-width="0.595806"/>
</svg>
