<svg width="28" height="28" viewBox="0 0 28 28" fill="none" xmlns="http://www.w3.org/2000/svg">
<g clip-path="url(#clip0_1935_4843)">
<path d="M22.1673 11.6667V14.0001C22.1673 16.166 21.3069 18.2432 19.7754 19.7748C18.2438 21.3063 16.1666 22.1667 14.0007 22.1667M14.0007 22.1667C11.8347 22.1667 9.75749 21.3063 8.22595 19.7748C6.6944 18.2432 5.83398 16.166 5.83398 14.0001V11.6667M14.0007 22.1667V26.8334M9.33398 26.8334H18.6673M14.0007 1.16675C13.0724 1.16675 12.1822 1.5355 11.5258 2.19187C10.8694 2.84825 10.5007 3.73849 10.5007 4.66675V14.0001C10.5007 14.9283 10.8694 15.8186 11.5258 16.475C12.1822 17.1313 13.0724 17.5001 14.0007 17.5001C14.9289 17.5001 15.8191 17.1313 16.4755 16.475C17.1319 15.8186 17.5007 14.9283 17.5007 14.0001V4.66675C17.5007 3.73849 17.1319 2.84825 16.4755 2.19187C15.8191 1.5355 14.9289 1.16675 14.0007 1.16675Z" stroke="#9E9E9E" stroke-width="2.48649" stroke-linecap="round" stroke-linejoin="round"/>
</g>
<defs>
<clipPath id="clip0_1935_4843">
<rect width="28" height="28" fill="white"/>
</clipPath>
</defs>
</svg>
